<?xml version="1.0" encoding="UTF-8" standalone="no"?>
<svg
   xmlns:svg="http://www.w3.org/2000/svg"
   xmlns="http://www.w3.org/2000/svg"
   width="1024"
   height="128"
   version="1.1">
  <path
       style="fill:#eeaa22;"
       d="m 0,0 5,10 0,118 30,0 c 37,0 61,-26 61,-65 0,-42 -18,-63 -57,-63 L 0,0 z M 126,0 128,8 95,128 l 28,0 3,-13 43,0 L 172,128 199,128 167,0 126,0 z m 82,0 4,10 0,118 23,0 0,-44 c 12,0 19,5 23,13 L 273,128 299,128 282,91 C 278,85 275,78 268,77 283,70 293,59 293,38 293,11 269,0 248,0 l -40,0 z m 98,0 4,10 0,118 25,0 0,-57 c 7,0 14,2 20,14 L 376,128 l 26,0 -26,-54 c -3,-6 -6,-11 -11,-13 4,-4 9,-9 11,-15 L 398,0 l -29,0 0,5 -14,32 c -4,8 -12,16 -19,16 L 335,0 306,0 z m 136,0 4,10 0,118 23,0 0,-44 c 12,0 19,5 23,13 L 507,128 l 26,0 -17,-37 C 513,85 509,78 502,77 517,70 527,59 527,38 527,11 503,0 482,0 l -40,0 z m 101,0 4,10 0,118 70,0 0,-21 -46,0 0,-36 42,0 0,-19 -42,0 0,-31 43,0 0,-20 -72,0 z m 116,0 2,8 L 628,128 l 28,0 3,-13 43,0 3,13 27,0 -33,-128 -41,0 z m 82,0 4,10 0,118 30,0 c 37,0 61,-26 61,-65 0,-42 -18,-63 -57,-63 l -38,0 z m 104,0 4,10 0,118 70,0 0,-21 -46,0 0,-36 42,0 0,-19 -42,0 0,-31 43,0 0,-20 -72,0 z m 88,0 4,10 0,118 23,0 0,-44 c 12,0 19,5 23,13 L 998,128 1024,128 1007,91 C 1003,85 999,78 993,77 1008,70 1017,59 1017,38 1017,11 994,0 973,0 l -40,0 z m -786,18 1,0 17,77 -34,0 16,-77 z m 534,0 1,0 17,77 -34,0 16,-77 z m -445,2 10,0 c 12,0 22,8 22,21 0,19 -14,26 -32,26 l 0,-47 z m 234,0 10,0 c 12,0 22,8 22,21 0,19 -14,26 -32,26 l 0,-47 z m 491,0 10,0 c 12,0 22,8 22,21 0,19 -14,26 -32,26 l 0,-47 z m -931,1 10,0 c 24,0 31,24 31,43 0,19 -12,44 -34,44 l -6,0 0,-86 z m 741,0 10,0 C 804,20 811,44 811,63 c 0,19 -12,44 -34,44 l -6,0 0,-86 z"
       id="dark-reader-logo" />
</svg>
