<svg viewBox="0 0 256 256" xmlns="http://www.w3.org/2000/svg"><defs><linearGradient x1="539" y1="92" x2="6.2002" y2="199.6476" id="gradient1" gradientUnits="userSpaceOnUse"><stop offset="0%" stop-color="rgb(205, 151, 125)"/><stop offset="100%" stop-color="rgb(36, 23, 20)"/></linearGradient><linearGradient x1="338" y1="198" x2="22.0772" y2="204.7779" id="gradient2" gradientUnits="userSpaceOnUse"><stop offset="0%" stop-color="rgb(223, 196, 183)"/><stop offset="100%" stop-color="rgb(183, 105, 138)"/></linearGradient><linearGradient x1="246.5332" y1="147.2878" x2="-15.7599" y2="153.2643" id="gradient3" gradientUnits="userSpaceOnUse"><stop offset="0%" stop-color="rgb(223, 196, 183)"/><stop offset="100%" stop-color="rgb(183, 105, 138)"/></linearGradient><linearGradient x1="134.7558" y1="77.7098" x2="0" y2="201" id="gradient4" gradientUnits="userSpaceOnUse"><stop offset="0%" stop-color="rgb(223, 196, 183)"/><stop offset="100%" stop-color="rgb(183, 105, 138)"/></linearGradient></defs><g id="Layer_1"><path d="M9.2181,230.177 C6.7355,227.1983 5.8019,222.9922 5.1091,218.6716 C4.0773,212.2367 3.6869,205.6586 3.4654,198.9481 C2.8785,181.1664 3.3612,162.2332 3.4654,143.8866 C3.5376,131.1979 3.3365,118.7387 8.3963,109.3704 C12.0015,102.6952 17.8203,98.0357 24.9765,98.0357 L229.7526,98.0357 C237.2933,98.0357 243.2324,103.6433 247.1417,111.2446 C252.702,122.0559 253.1621,135.8245 253.3724,149.8268 C253.6063,165.3971 253.4444,180.9155 253.2969,196.4826 C253.1961,207.1183 253.0855,217.7327 249.1878,225.2461 C246.9609,229.5388 243.6585,232.7888 239.326,235.1079 C231.5408,239.2752 220.6966,240.1968 209.7407,240.8606 C181.4621,242.5738 152.1128,243.1084 123.2042,242.9824 C102.0915,242.8904 80.8438,242.2519 59.9353,241.249 C47.0862,240.6327 33.6506,239.5914 22.3672,236.7515 C16.997,235.3999 12.1584,233.7048 9.2181,230.177 Z" class="Curve" fill="url(#gradient1)"/><path d="M4,194 C46.8006,195.8315 89.6251,196.7605 132.4506,196.7161 C172.3737,196.6748 212.2937,195.7892 252.1878,194 L252.1878,207.149 C212.7706,209.2205 172.8423,210.7781 134.184,210.5833 C116.7026,210.4951 99.2178,210.0549 84,211 C80.9131,211.1917 77.9231,211.4242 75,212 C68.3064,213.3184 62.0279,216.4572 56,216 C50.9766,215.619 46.1753,212.7628 41,211 C35.5967,209.1595 29.8002,208.472 24,208 C17.6275,207.4815 11.2296,207.1664 4.8218,207.149 L4,194 Z" class="Curve" fill="url(#gradient2)"/><path d="M4,146 C45.2965,147.7332 86.6156,148.6001 127.9376,148.6001 C169.2595,148.6001 210.5787,147.7332 251.8751,146 L251.8751,159.0004 C241.2566,159.7947 230.6441,160.6181 220,161 C209.6465,161.3715 199.2451,161.6124 190,164 C184.4263,165.4394 179.2778,167.7062 174,168 C168.1573,168.3252 162.1929,166.2427 156,165 C147.3192,163.258 138.1629,163.1539 129,163 C103.4995,162.5718 77.8326,162.2994 52.0538,161.4125 C36.0269,160.8612 20.0032,160.0954 4,159.0004 L4,146 Z" class="Curve" fill="url(#gradient3)"/><path d="M24.9765,90.4439 L232.0278,90.4439 C244.9886,90.4439 253.7285,98.9429 254.7807,109.4234 C256.3494,125.0481 243.7193,136.3744 232.0278,132.1989 C224.7952,129.6158 220.18,119.2298 211.5502,114.1683 C204.0833,109.7888 194.4759,109.5927 186.5221,113.2193 C173.122,119.3292 165.9282,136.227 156.1386,138.1122 C143.2616,140.5918 128.1371,117.1349 109.1622,117.0152 C98.6017,116.9486 87.1906,124.3427 75.0329,130.3009 C62.6,136.394 49.9319,140.4989 40.9035,135.9948 C33.3561,132.2295 28.7525,122.2354 21.5636,119.8622 C17.2494,118.438 12.2799,119.6963 8.4683,118.1781 C0.4269,114.9754 -1.7227,103.9989 5.0015,96.5107 C8.9284,92.1377 16.0006,90.4439 24.9765,90.4439 Z" class="Curve" fill="url(#gradient4)"/><path d="M65.1355,62.7096 L87.6696,62.7096 L87.6696,90.4439 L65.1355,90.4439 L65.1355,62.7096 Z" class="Curve" fill="rgb(183, 105, 138)"/><path d="M117.1373,62.7096 L139.6714,62.7096 L139.6714,90.4439 L117.1373,90.4439 L117.1373,62.7096 Z" class="Curve" fill="rgb(205, 151, 125)"/><path d="M169.1391,62.7096 L191.6732,62.7096 L191.6732,90.4439 L169.1391,90.4439 L169.1391,62.7096 Z" class="Curve" fill="rgb(183, 105, 138)"/><path d="M41.2689,46.9125 C41.2391,26.4472 57.7392,9.9084 78.2505,9.9309 C98.7094,9.9533 115.2321,26.4571 115.2321,46.9125 C115.2321,67.368 98.7094,83.8717 78.2505,83.8941 C57.7392,83.9166 41.2391,67.3778 41.2689,46.9125 Z" class="Curve" fill="rgb(233,108,76)" opacity="0.2"/><path d="M143.9957,44.4471 C143.9658,23.9818 160.466,7.443 180.9773,7.4655 C201.4361,7.4879 217.9589,23.9916 217.9589,44.4471 C217.9589,64.9025 201.4361,81.4062 180.9773,81.4287 C160.466,81.4512 143.9658,64.9124 143.9957,44.4471 Z" class="Curve" fill="rgb(233,108,76)" opacity="0.2"/><path d="M89.7559,41.9816 C89.7261,21.5163 106.2262,4.9775 126.7376,5 C147.1964,5.0225 163.7192,21.5262 163.7192,41.9816 C163.7192,62.4371 147.1964,78.9408 126.7376,78.9632 C106.2262,78.9857 89.7261,62.4469 89.7559,41.9816 Z" class="Curve" fill="rgb(233,108,76)" opacity="0.3"/><path d="M128.4043,11.5745 C124.8117,18.0439 121.6114,24.6584 118.8707,31.5085 C115.7166,39.3919 112.9797,47.0642 115.4039,53.1759 C117.6205,58.7643 123.2753,62.2893 129.271,61.8429 C135.8421,61.3537 140.9816,56.5201 141.4048,50.5758 C141.8566,44.2284 135.5785,37.7973 131.8711,29.7751 C129.2755,24.1585 127.9783,17.9178 128.4043,11.5745 Z" class="Curve" fill="rgb(233,108,76)"/><path d="M129.6219,59.0623 C126.4689,58.9573 123.5591,55.9477 122.2063,51.6467 C119.9929,44.6096 122.9356,35.6444 128.8803,27.175 C128.5394,31.0913 129.3786,34.9704 131.105,38.2985 C132.7807,41.5287 135.3664,44.1578 136.296,47.1973 C138.2567,53.6086 134.6324,59.2292 129.6219,59.0623 Z" class="Curve" fill="rgb(245, 196, 80)"/><path d="M179.161,19.8211 C182.1647,25.2299 184.8404,30.7601 187.1319,36.4874 C189.7689,43.0784 192.0571,49.4931 190.0303,54.6029 C188.1771,59.2752 183.4493,62.2223 178.4364,61.8491 C172.9425,61.4401 168.6455,57.3989 168.2917,52.429 C167.9139,47.1221 173.1629,41.7453 176.2625,35.0381 C178.4327,30.3422 179.5172,25.1245 179.161,19.8211 Z" class="Curve" fill="rgb(233,108,76)"/><path d="M76.3975,21.9749 C79.265,27.1387 81.8195,32.4183 84.0071,37.886 C86.5247,44.1784 88.7092,50.3023 86.7743,55.1806 C85.005,59.6413 80.4914,62.4548 75.7057,62.0985 C70.4607,61.708 66.3584,57.8499 66.0207,53.1053 C65.66,48.0388 70.6712,42.9056 73.6303,36.5024 C75.7021,32.0192 76.7375,27.038 76.3975,21.9749 Z" class="Curve" fill="rgb(233,108,76)"/><path d="M178.4364,59.6753 C181.5173,59.5726 184.3607,56.6318 185.6826,52.429 C187.8454,45.5528 184.9699,36.7924 179.161,28.5165 C179.4941,32.3433 178.6741,36.1337 176.9872,39.3858 C175.3498,42.5423 172.8231,45.1113 171.9148,48.0813 C169.9989,54.3461 173.5404,59.8383 178.4364,59.6753 Z" class="Curve" fill="rgb(245, 196, 80)"/><path d="M76.6261,59.8103 C78.996,59.7313 81.1832,57.4691 82.2001,54.2362 C83.8638,48.9468 81.6519,42.208 77.1835,35.842 C77.4397,38.7857 76.8089,41.7014 75.5113,44.203 C74.2518,46.6311 72.3082,48.6072 71.6095,50.8918 C70.1357,55.7109 72.8599,59.9357 76.6261,59.8103 Z" class="Curve" fill="rgb(245, 196, 80)"/><path d="M191.6732,93.9106 L235.008,94.7773 C242.3983,94.9252 247.9717,99.9265 249.7418,106.9111 C251.126,112.3727 249.7568,118.1349 245.4083,122.5116 C244.8897,116.5409 241.8961,111.3723 237.6081,107.7778 C232.5678,103.5527 225.5762,101.7445 218.5407,99.9775 C209.6424,97.7427 200.6926,95.7007 191.6732,93.9106 Z" class="Curve" fill="rgb(223, 196, 183)"/><path d="M53.5879,94.7773 L19.7867,94.7773 C13.1091,94.7773 7.7519,98.6333 5.9196,104.311 C4.7909,107.8085 5.2524,111.5669 7.653,114.7114 C9.4777,110.6362 12.5854,107.4577 16.3199,105.1777 C21.6768,101.9074 28.5531,100.5017 35.3873,99.1108 C41.5069,97.8654 47.5097,96.1624 53.5879,94.7773 Z" class="Curve" fill="rgb(223, 196, 183)"/></g></svg>