<svg width="574.02" height="56.542" viewBox="0 0 574.02 90.542" xmlns="http://www.w3.org/2000/svg">
    <g id="svgGroup" stroke-linecap="round" fill-rule="evenodd" font-size="9pt" stroke="#ffffff" stroke-width="0.25mm"
        fill="#e96c4c" style="stroke:#ffffff;stroke-width:0.25mm;fill:#e96c4c">
        <path
            d="M 0 65.07 L 0 7.02 Q 0 5.85 1.395 5.085 Q 2.79 4.32 4.5 4.32 Q 6.39 4.32 7.02 5.4 L 28.26 36.81 L 49.59 5.4 Q 50.22 4.32 51.84 4.32 Q 53.46 4.32 54.99 5.13 Q 56.52 5.94 56.52 7.02 L 56.52 65.07 Q 56.52 66.24 55.53 66.915 Q 54.54 67.59 53.19 67.59 Q 49.86 67.59 49.86 65.07 L 49.86 16.74 L 33.48 40.5 Q 31.32 43.65 28.17 43.65 Q 25.29 43.65 23.04 40.5 L 6.66 16.74 L 6.66 65.07 Q 6.66 66.24 5.67 66.915 Q 4.68 67.59 3.33 67.59 Q 0 67.59 0 65.07 Z M 379.98 56.16 Q 379.98 54.81 381.015 53.37 Q 382.05 51.93 383.4 51.93 Q 383.85 51.93 384.03 52.11 Q 387.18 55.44 393.525 58.185 Q 399.87 60.93 405.45 60.93 Q 421.56 60.93 421.56 50.22 Q 421.56 46.62 419.355 44.325 Q 417.15 42.03 413.595 40.86 Q 410.04 39.69 405.765 38.88 Q 401.49 38.07 397.17 36.945 Q 392.85 35.82 389.295 34.11 Q 385.74 32.4 383.535 28.89 Q 381.33 25.38 381.33 20.34 Q 381.33 12.78 387.99 8.685 Q 394.65 4.59 403.92 4.59 Q 411.12 4.59 417.465 6.975 Q 423.81 9.36 426.78 13.68 Q 426.87 13.86 426.87 14.13 Q 426.87 15.21 425.385 16.335 Q 423.9 17.46 422.73 17.46 Q 422.55 17.46 421.65 17.01 Q 414.54 11.16 404.01 11.16 Q 397.62 11.16 392.76 13.545 Q 387.9 15.93 387.9 20.79 Q 387.9 24.12 390.105 26.28 Q 392.31 28.44 395.865 29.475 Q 399.42 30.51 403.74 31.275 Q 408.06 32.04 412.38 33.21 Q 416.7 34.38 420.255 36.225 Q 423.81 38.07 426.015 41.76 Q 428.22 45.45 428.22 50.76 Q 428.22 67.5 406.08 67.5 Q 398.88 67.5 391.95 64.935 Q 385.02 62.37 380.61 57.87 Q 379.98 57.24 379.98 56.16 Z M 265.32 27 L 265.32 24.93 Q 265.32 22.5 268.74 22.5 Q 270.09 22.5 271.035 23.13 Q 271.98 23.76 271.98 24.93 L 271.98 68.04 Q 271.98 78.57 265.14 84.555 Q 258.3 90.54 249.21 90.54 Q 242.01 90.54 237.15 88.02 Q 232.29 85.5 232.2 79.65 Q 232.2 78.21 233.1 77.445 Q 234 76.68 235.35 76.68 Q 236.79 76.68 237.825 77.49 Q 238.86 78.3 238.86 79.56 Q 238.86 81.09 239.715 82.035 Q 240.57 82.98 242.46 83.34 Q 244.35 83.7 245.745 83.79 Q 247.14 83.88 249.66 83.88 Q 256.05 83.88 260.685 80.01 Q 265.32 76.14 265.32 68.67 L 265.32 50.4 Q 258.03 59.85 251.415 64.08 Q 244.8 68.31 237.78 68.31 Q 231.3 68.31 226.35 63.045 Q 221.4 57.78 221.4 51.21 Q 221.4 39.15 230.85 30.42 Q 240.3 21.69 252.27 21.69 Q 259.74 21.69 265.32 27 Z M 282.78 65.25 L 282.78 2.43 Q 282.78 1.26 283.725 0.63 Q 284.67 0 286.02 0 Q 289.44 0 289.44 2.43 L 289.44 32.31 Q 293.85 27.63 300.24 24.93 Q 306.63 22.23 313.29 22.23 Q 321.84 22.23 327.51 27.225 Q 333.18 32.22 333.18 40.59 Q 333.18 41.4 333.135 48.825 Q 333.09 56.25 333.09 65.07 Q 333.09 66.24 332.1 66.915 Q 331.11 67.59 329.76 67.59 Q 326.43 67.59 326.43 65.07 L 326.43 41.4 Q 326.43 36.99 323.955 33.975 Q 321.48 30.96 318.51 29.88 Q 315.54 28.8 312.48 28.8 Q 305.82 28.8 298.935 32.94 Q 292.05 37.08 289.44 43.56 L 289.44 65.25 Q 289.44 67.68 286.02 67.68 Q 284.67 67.68 283.725 67.05 Q 282.78 66.42 282.78 65.25 Z M 145.35 65.25 L 145.35 25.02 Q 145.35 23.85 146.295 23.22 Q 147.24 22.59 148.59 22.59 Q 152.01 22.59 152.01 25.02 L 152.01 32.13 Q 156.51 27.27 162.9 24.435 Q 169.29 21.6 175.86 21.6 Q 184.32 21.6 190.035 26.865 Q 195.75 32.13 195.75 40.59 Q 195.75 41.4 195.705 48.825 Q 195.66 56.25 195.66 65.07 Q 195.66 66.24 194.67 66.915 Q 193.68 67.59 192.33 67.59 Q 189 67.59 189 65.07 L 189 41.4 Q 189 35.01 184.455 31.59 Q 179.91 28.17 175.05 28.17 Q 168.48 28.17 161.595 32.535 Q 154.71 36.9 152.01 43.56 L 152.01 65.25 Q 152.01 67.68 148.59 67.68 Q 147.24 67.68 146.295 67.05 Q 145.35 66.42 145.35 65.25 Z M 443.88 25.11 L 443.88 48.42 Q 443.88 54.81 448.425 58.365 Q 452.97 61.92 457.83 61.92 Q 463.95 61.92 470.925 57.465 Q 477.9 53.01 480.6 46.35 L 480.6 25.02 Q 480.6 22.59 484.02 22.59 Q 485.37 22.59 486.315 23.22 Q 487.26 23.85 487.26 25.02 L 487.26 65.16 Q 487.26 66.33 486.315 66.96 Q 485.37 67.59 484.02 67.59 Q 480.6 67.59 480.6 65.16 L 480.6 57.78 Q 476.1 62.73 469.845 65.61 Q 463.59 68.49 457.02 68.49 Q 448.56 68.49 442.845 63.09 Q 437.13 57.69 437.13 49.23 Q 437.13 48.42 437.175 41.175 Q 437.22 33.93 437.22 25.11 Q 437.22 23.94 438.21 23.265 Q 439.2 22.59 440.55 22.59 Q 443.88 22.59 443.88 25.11 Z M 127.89 27 L 127.89 2.43 Q 127.89 0.09 131.13 0.09 Q 134.55 0.09 134.55 2.43 L 134.55 65.07 Q 134.55 67.59 131.22 67.59 Q 129.87 67.59 128.88 66.915 Q 127.89 66.24 127.89 65.07 L 127.89 50.4 Q 120.6 59.85 113.985 64.08 Q 107.37 68.31 100.35 68.31 Q 93.87 68.31 88.92 63.045 Q 83.97 57.78 83.97 51.21 Q 83.97 39.15 93.42 30.42 Q 102.87 21.69 114.84 21.69 Q 122.31 21.69 127.89 27 Z M 541.89 24.84 L 544.95 24.84 L 544.95 19.26 Q 544.95 0.09 559.26 0.09 Q 565.47 0.09 569.7 3.87 Q 573.93 7.65 574.02 14.76 Q 574.02 16.2 573.075 16.965 Q 572.13 17.73 570.78 17.73 Q 569.34 17.73 568.35 16.92 Q 567.36 16.11 567.36 14.85 Q 567.36 10.35 564.93 8.55 Q 562.5 6.75 559.26 6.75 Q 551.61 6.75 551.61 16.83 L 551.61 24.84 L 566.01 24.84 Q 568.44 24.84 568.44 28.26 Q 568.44 29.61 567.81 30.555 Q 567.18 31.5 566.01 31.5 L 551.61 31.5 L 551.61 65.07 Q 551.61 67.5 548.19 67.5 Q 546.84 67.5 545.895 66.87 Q 544.95 66.24 544.95 65.07 L 544.95 31.5 L 541.89 31.5 Q 540.72 31.5 540.045 30.51 Q 539.37 29.52 539.37 28.17 Q 539.37 24.84 541.89 24.84 Z M 342.54 22.59 L 345.6 22.59 L 345.6 11.52 Q 345.6 10.35 346.545 9.72 Q 347.49 9.09 348.84 9.09 Q 352.26 9.09 352.26 11.52 L 352.26 22.59 L 366.66 22.59 Q 367.83 22.59 368.46 23.535 Q 369.09 24.48 369.09 25.83 Q 369.09 29.25 366.66 29.25 L 352.26 29.25 L 352.26 50.76 Q 352.26 60.84 359.91 60.84 Q 363.15 60.84 365.535 59.04 Q 367.92 57.24 367.92 52.74 Q 367.92 51.48 368.955 50.67 Q 369.99 49.86 371.43 49.86 Q 372.78 49.86 373.68 50.625 Q 374.58 51.39 374.58 52.83 Q 374.49 59.94 370.305 63.72 Q 366.12 67.5 359.91 67.5 Q 345.6 67.5 345.6 48.33 L 345.6 29.25 L 342.54 29.25 Q 340.02 29.25 340.02 25.92 Q 340.02 24.57 340.695 23.58 Q 341.37 22.59 342.54 22.59 Z M 497.97 65.07 L 497.97 25.2 Q 497.97 22.77 501.39 22.77 Q 502.74 22.77 503.685 23.4 Q 504.63 24.03 504.63 25.2 L 504.63 36.45 Q 508.05 29.07 512.235 25.29 Q 516.42 21.51 523.35 21.51 Q 528.21 21.51 533.16 22.77 Q 535.77 24.03 535.77 26.19 Q 535.77 27.72 535.14 28.35 Q 534.51 28.98 533.07 29.16 Q 528.48 28.08 525.6 28.08 Q 518.94 28.08 513.45 34.65 Q 507.96 41.22 504.63 51.75 L 504.63 65.07 Q 504.63 66.24 503.64 66.915 Q 502.65 67.59 501.3 67.59 Q 497.97 67.59 497.97 65.07 Z M 90.45 51.39 Q 90.45 56.52 94.05 59.175 Q 97.65 61.83 101.7 61.83 Q 106.38 61.83 112.41 57.195 Q 118.44 52.56 122.445 46.845 Q 126.45 41.13 126.45 37.89 Q 126.45 35.19 124.875 33.075 Q 123.3 30.96 121.005 29.97 Q 118.71 28.98 116.82 28.485 Q 114.93 27.99 113.67 27.99 Q 104.85 27.99 97.65 35.055 Q 90.45 42.12 90.45 51.39 Z M 227.88 51.39 Q 227.88 56.52 231.48 59.175 Q 235.08 61.83 239.13 61.83 Q 243.81 61.83 249.84 57.195 Q 255.87 52.56 259.875 46.845 Q 263.88 41.13 263.88 37.89 Q 263.88 35.19 262.305 33.075 Q 260.73 30.96 258.435 29.97 Q 256.14 28.98 254.25 28.485 Q 252.36 27.99 251.1 27.99 Q 242.28 27.99 235.08 35.055 Q 227.88 42.12 227.88 51.39 Z M 68.49 65.07 L 68.49 25.02 Q 68.49 22.59 71.91 22.59 Q 73.26 22.59 74.205 23.22 Q 75.15 23.85 75.15 25.02 L 75.15 65.07 Q 75.15 66.24 74.16 66.915 Q 73.17 67.59 71.82 67.59 Q 68.49 67.59 68.49 65.07 Z M 205.92 65.07 L 205.92 25.02 Q 205.92 22.59 209.34 22.59 Q 210.69 22.59 211.635 23.22 Q 212.58 23.85 212.58 25.02 L 212.58 65.07 Q 212.58 66.24 211.59 66.915 Q 210.6 67.59 209.25 67.59 Q 205.92 67.59 205.92 65.07 Z M 68.49 11.07 L 68.49 9.45 Q 68.49 7.02 71.91 7.02 Q 73.26 7.02 74.205 7.65 Q 75.15 8.28 75.15 9.45 L 75.15 11.07 Q 75.15 12.24 74.16 12.915 Q 73.17 13.59 71.82 13.59 Q 68.49 13.59 68.49 11.07 Z M 205.92 11.07 L 205.92 9.45 Q 205.92 7.02 209.34 7.02 Q 210.69 7.02 211.635 7.65 Q 212.58 8.28 212.58 9.45 L 212.58 11.07 Q 212.58 12.24 211.59 12.915 Q 210.6 13.59 209.25 13.59 Q 205.92 13.59 205.92 11.07 Z"
            vector-effect="non-scaling-stroke" />
    </g>
</svg>