<svg viewBox="0 0 1280 128" xmlns="http://www.w3.org/2000/svg"><defs/><g><path d="M0,0 L0,128 L53.2078,128 C72.3462,128 89.444,120.9515 101,108 C111.6887,96.0205 116.8942,79.7806 117,63 C117.1072,45.9986 112.0159,29.5347 101,18 C89.3172,5.767 71.7953,-4.7985e-15 52.2039,0 L0,0 Z M36,30 L52,30 C69.2284,30 80.5256,44.7128 81,63 C81.5012,82.3198 69.9123,98 52,98 L36,98 L36,30 Z" fill="rgb(233,108,76)" opacity="1"/><path d="M159,-2.4425e-15 L117,128 L156,128 L162,108 L210,108 L216,128 L254,128 L211,-2.4425e-15 L159,-2.4425e-15 Z M184,28 L187,28 L202,82 L170,82 L184,28 Z" fill="rgb(233,108,76)" opacity="1"/><path d="M265,0 L265,128 L301,128 L301.0314,90 L316,90 L335,128 L374.4275,128 L349,82 C354.0131,77.7882 357.9613,72.6552 361,67 C366.3816,56.9845 368.9223,45.8756 367.4,35 C366.3062,27.1856 363.2544,19.8198 358,14 C349.6636,4.7667 336.51,-3.5539e-15 322,0 L265,0 Z M301,27 L318,27 C323.2425,27 327.8843,29.2327 331,33 C333.9644,36.5843 335.3323,41.2953 335,46 C334.5594,52.2377 331.272,57.8447 326,61 C322.3296,63.1967 317.8529,64 313,64 L300.9961,64 L301,27 Z" fill="rgb(233,108,76)" opacity="1"/><path d="M389,0 L389,128 L422.4824,128 L422.4824,77 L435.4824,77 L465.4824,128 L505.4549,128 L463.4824,61 L501.4392,0 L464.4824,0 L433.4824,49 L422.4824,49 L422.4824,0 L389,0 Z" fill="rgb(233,108,76)" opacity="1"/><path d="M688,0 L688,128 L772,128 L772,98 L722,98 L722,79 L767,79 L767,49 L722,49 L722,30 L768.9882,30 L768.9882,0 L688,0 Z" fill="rgb(233,108,76)" opacity="1"/><path d="M1171,-6.9944e-15 L1171,128 L1207,128 L1207.0314,90 L1222,90 L1241,128 L1280.4275,128 L1255,82 C1260.0131,77.7882 1263.9613,72.6552 1267,67 C1272.3816,56.9845 1274.9223,45.8756 1273.4,35 C1272.3062,27.1856 1269.2544,19.8198 1264,14 C1255.6636,4.7667 1242.51,-1.0548e-14 1228,-6.9944e-15 L1171,-6.9944e-15 Z M1207,27 L1224,27 C1229.2425,27 1233.8843,29.2327 1237,33 C1239.9644,36.5843 1241.3323,41.2953 1241,46 C1240.5594,52.2377 1237.272,57.8447 1232,61 C1228.3296,63.1967 1223.8529,64 1219,64 L1206.9961,64 L1207,27 Z" fill="rgb(233,108,76)" opacity="1"/><path d="M565,1.1102e-15 L565,128 L601,128 L601.0314,90 L616,90 L635,128 L674.4275,128 L649,82 C654.0131,77.7882 657.9613,72.6552 661,67 C666.3816,56.9845 668.9223,45.8756 667.4,35 C666.3062,27.1856 663.2544,19.8198 658,14 C649.6636,4.7667 636.51,-2.4437e-15 622,1.1102e-15 L565,1.1102e-15 Z M601,27 L618,27 C623.2425,27 627.8843,29.2327 631,33 C633.9644,36.5843 635.3323,41.2953 635,46 C634.5594,52.2377 631.272,57.8447 626,61 C622.3296,63.1967 617.8529,64 613,64 L600.9961,64 L601,27 Z" fill="rgb(233,108,76)" opacity="1"/><path d="M822,3.3307e-15 L780,128 L819,128 L825,108 L873,108 L879,128 L917,128 L874,3.3307e-15 L822,3.3307e-15 Z M847,28 L850,28 L865,82 L833,82 L847,28 Z" fill="rgb(233,108,76)" opacity="1"/><path d="M930,5.4401e-15 L930,128 L983.2078,128 C1002.3462,128 1019.444,120.9515 1031,108 C1041.6887,96.0205 1046.8942,79.7806 1047,63 C1047.1072,45.9986 1042.0159,29.5347 1031,18 C1019.3172,5.767 1001.7953,6.416e-16 982.2039,5.4401e-15 L930,5.4401e-15 Z M966,30 L982,30 C999.2284,30 1010.5256,44.7128 1011,63 C1011.5012,82.3198 999.9123,98 982,98 L966,98 L966,30 Z" fill="rgb(233,108,76)" opacity="1"/><path d="M1066,2.2204e-16 L1066,128 L1150,128 L1150,98 L1100,98 L1100,79 L1145,79 L1145,49 L1100,49 L1100,30 L1146.9882,30 L1146.9882,2.2204e-16 L1066,2.2204e-16 Z" fill="rgb(233,108,76)" opacity="1"/></g></svg>