<?xml version="1.0" encoding="utf-8"?>
<!-- Generator: Adobe Illustrator 23.0.2, SVG Export Plug-In . SVG Version: 6.00 Build 0)  -->
<svg version="1.1" id="Layer_1" xmlns="http://www.w3.org/2000/svg" xmlns:xlink="http://www.w3.org/1999/xlink" x="0px" y="0px"
	 viewBox="0 0 177 60" style="enable-background:new 0 0 177 47;" xml:space="preserve">
<style type="text/css">
	.st0{fill:#FFFFFF;}
</style>
<g>
	<g transform="translate(-200 -91)">
		<g>
			<path class="st0" d="M232,91.5h-4.6c-0.9,0-1.6,0.7-1.6,1.6V94l-0.2-0.2c-2.4-1.9-5.4-2.8-8.9-2.8c-5.1,0-9.2,1.7-12.3,5.1
				c-3,3.3-4.5,7.4-4.5,12.3c0,4.8,1.5,9,4.4,12.3c3.1,3.4,7.1,5.1,12,5.1c3.6,0,6.7-0.9,9.2-2.8l0.2-0.2v0.9c0,0.9,0.7,1.6,1.6,1.6
				h4.6c0.9,0,1.6-0.7,1.6-1.6V93.1C233.6,92.2,232.8,91.5,232,91.5L232,91.5z M223.7,115.6c-1.6,1.9-3.8,2.9-6.6,2.9
				c-2.8,0-5.1-1-6.8-2.9c-1.7-1.9-2.5-4.2-2.5-7.2c0-2.9,0.8-5.3,2.5-7.2c1.8-2,4-2.9,6.8-2.9c2.9,0,5,0.9,6.7,2.9
				c1.6,1.9,2.4,4.2,2.4,7.2C226.1,111.4,225.3,113.7,223.7,115.6L223.7,115.6z"/>
		</g>
	</g>
	<g transform="translate(-200 -91)">
		<g>
			<path class="st0" d="M274.1,98.3c1.8,0,3.2,0.6,4.3,1.8c1.2,1.4,1.7,3.1,1.7,5.2v18.4c0,0.9,0.7,1.6,1.6,1.6h4.6
				c0.9,0,1.6-0.7,1.6-1.6v-18.5c0-4.1-1.3-7.5-3.9-10.3l0,0c-1.2-1.2-2.6-2.2-4.2-2.9c-1.6-0.7-3.2-1-4.9-1c-1.7,0-3.2,0.3-4.6,0.8
				c-2.4,0.9-4.3,2.2-5.8,4l-0.1,0.1l-0.1-0.1c-0.9-1.1-2-2.1-3.2-2.9c-1.9-1.2-4.2-1.9-6.5-1.9c-3,0-5.5,0.8-7.5,2.3l-0.2,0.2v-0.4
				c0-0.9-0.7-1.6-1.6-1.6h-4.6c-0.9,0-1.6,0.7-1.6,1.6v30.7c0,0.9,0.7,1.6,1.6,1.6h4.6c0.9,0,1.6-0.7,1.6-1.6v-18.3
				c0-2.3,0.6-4,2-5.2l0,0c1.3-1.2,2.8-1.8,4.7-1.8c1.8,0,3.2,0.6,4.3,1.8c1.2,1.4,1.7,3.1,1.7,5.2v18.4c0,0.9,0.7,1.6,1.6,1.6h4.6
				c0.9,0,1.6-0.7,1.6-1.6v-18.3c0-2.3,0.6-4,2-5.2l0.1,0.1l-0.1-0.1C270.6,98.9,272.1,98.3,274.1,98.3z"/>
		</g>
	</g>
	<g transform="translate(-200 -91)">
		<g>
			<path class="st0" d="M323.2,91.5h-4.6c-0.9,0-1.6,0.7-1.6,1.6V94l-0.2-0.2c-2.4-1.9-5.4-2.8-8.9-2.8c-5.1,0-9.2,1.7-12.3,5.1
				c-3,3.3-4.5,7.4-4.5,12.3c0,4.8,1.5,9,4.4,12.3c3.1,3.4,7.1,5.1,12,5.1c3.6,0,6.7-0.9,9.2-2.8l0.2-0.2v0.9c0,0.9,0.7,1.6,1.6,1.6
				h4.6c0.9,0,1.6-0.7,1.6-1.6V93.1C324.8,92.2,324.1,91.5,323.2,91.5L323.2,91.5z M314.9,115.6c-1.6,1.9-3.8,2.9-6.7,2.9
				c-2.8,0-5.1-0.9-6.8-2.9c-1.7-1.9-2.5-4.2-2.5-7.2s0.8-5.3,2.5-7.2c1.7-2,4-2.9,6.8-2.9c2.9,0,5,0.9,6.7,2.9
				c1.6,1.9,2.4,4.2,2.4,7.2C317.3,111.4,316.5,113.7,314.9,115.6z"/>
		</g>
	</g>
	<g transform="translate(-200 -91)">
		<g>
			<path class="st0" d="M361.3,91.5h-4.6c-0.9,0-1.6,0.7-1.6,1.6V94l-0.2-0.2c-2.4-1.8-5.4-2.8-8.9-2.8c-5.1,0-9.2,1.7-12.3,5
				c-3,3.2-4.5,7.3-4.5,12.1s1.5,8.9,4.5,12.1c3.1,3.3,7.1,5,11.9,5c3.6,0,6.7-1,9.2-2.9l0.2-0.2v0.3c0,2.7-0.7,4.8-1.9,6.1
				c-1.3,1.3-3.5,2-6.6,2c-5.9,0-7.1-2.9-7.5-3.8c-0.2-0.6-0.8-1-1.4-1h-5.1c-0.9,0-1.6,0.7-1.6,1.6c0,0.2,0,0.3,0.1,0.5
				c1,3,2.8,5.5,5.5,7.3c2.6,1.8,6.3,2.7,10.9,2.7c4.6,0,8.4-1.3,11.2-3.9c2.8-2.6,4.3-6.4,4.3-11.2V93.1
				C362.9,92.2,362.2,91.5,361.3,91.5L361.3,91.5z M353,115.2c-0.8,0.9-1.8,1.6-2.9,2c-1.1,0.5-2.4,0.8-3.8,0.8
				c-2.9,0-5.1-0.9-6.8-2.8c-1.7-1.9-2.5-4.2-2.5-7.1c0-2.9,0.8-5.2,2.5-7c1.7-1.9,3.9-2.8,6.8-2.8c2.8,0,5,0.9,6.7,2.8
				c1.6,1.8,2.4,4.2,2.4,7.1C355.4,111.1,354.6,113.4,353,115.2L353,115.2z"/>
		</g>
	</g>
	<g transform="translate(-200 -91)">
		<g>
			<path class="st0" d="M375.5,91.2h-4.6c-0.9,0-1.6,0.7-1.6,1.6v30.1c0,0.9,0.7,1.6,1.6,1.6h4.6c0.9,0,1.6-0.7,1.6-1.6V92.8
				C377,91.9,376.3,91.2,375.5,91.2z"/>
		</g>
	</g>
</g>
</svg>
