<svg version="1.1" viewBox="0.0 0.0 619.8110236220473 223.13123359580052" fill="none" stroke="none" stroke-linecap="square" stroke-miterlimit="10" xmlns:xlink="http://www.w3.org/1999/xlink" xmlns="http://www.w3.org/2000/svg"><clipPath id="p.0"><path d="m0 0l619.81104 0l0 223.13124l-619.81104 0l0 -223.13124z" clip-rule="nonzero"/></clipPath><g clip-path="url(#p.0)"><path fill="#000000" fill-opacity="0.0" d="m0 0l619.81104 0l0 223.13124l-619.81104 0z" fill-rule="evenodd"/><path fill="#ff0000" d="m200.3281 85.69949l0 61.33528l7.186676 0l0 -61.33528z" fill-rule="evenodd"/><path fill="#ff0000" d="m219.18388 85.69949l0 61.33528l6.6680603 0l0 -61.33528z" fill-rule="evenodd"/><path fill="#ff0000" d="m236.03926 85.69949l0 61.33528l6.6680603 0l0 -61.33528z" fill-rule="evenodd"/><path fill="#ff0000" d="m252.89464 102.602264l0 27.529755c0 3.207611 0.13583374 5.5505676 0.40748596 7.0288696c0.39515686 2.2034912 1.0784302 4.067627 2.04982 5.592407c0.9796295 1.5154877 2.4737701 2.775299 4.4824066 3.779419c2.0169067 1.0041199 4.1860657 1.5061951 6.507538 1.5061951c5.260376 0 9.421722 -2.510315 12.4841 -7.530945l0 6.5268097l5.964203 0l0 -44.43251l-6.6680603 0l0 23.806122c0 3.7933502 -0.366333 6.689514 -1.098999 8.688461c-0.72442627 1.9896545 -1.9633789 3.565567 -3.7168274 4.7277527c-1.7534485 1.1528931 -3.630371 1.7293243 -5.6307983 1.7293243c-2.0004272 0 -3.679779 -0.56248474 -5.038086 -1.6874847c-1.3583069 -1.1342926 -2.2473755 -2.6916046 -2.6672363 -4.6719666c-0.27166748 -1.3667297 -0.4074707 -4.0164948 -0.4074707 -7.949318l0 -24.64289z" fill-rule="evenodd"/><path fill="#ff0000" d="m313.12946 101.59814c-2.6178284 0 -4.95166 0.66477203 -7.001465 1.9943008c-2.0498047 1.3202438 -3.6921387 3.068161 -4.926941 5.243767l0 -6.23394l-5.9642334 0l0 44.43251l6.6680603 0l0 -23.053024c0 -4.0443954 0.35812378 -7.140442 1.0743103 -9.288155c0.7161865 -2.1477127 1.8687134 -3.7794113 3.4575195 -4.895111c1.5970459 -1.1156921 3.334015 -1.6735382 5.210968 -1.6735382c2.469635 0 4.2478027 0.8367691 5.334442 2.510315c1.0866394 1.6735382 1.6299744 4.183853 1.6299744 7.5309296l0 28.868584l6.6680603 0l0 -25.81437c0 -4.5743484 0.9137573 -7.8981857 2.7413025 -9.971512c1.8275452 -2.082634 4.1243286 -3.1239471 6.8903503 -3.1239471c1.5311584 0 2.8647766 0.40444183 4.000824 1.2133179c1.1360474 0.80887604 1.9180908 1.8780899 2.346161 3.2076187c0.4363098 1.3202438 0.65448 3.4865494 0.65448 6.4989166l0 27.989975l6.631012 0l0 -30.500282c0 -5.0764084 -1.0496216 -8.832581 -3.1488037 -11.268509c-2.0992126 -2.4452286 -5.0998535 -3.6678467 -9.001892 -3.6678467c-4.9887085 0 -9.03894 2.5939865 -12.150696 7.781967c-0.7655945 -2.4545288 -2.0827332 -4.3651505 -3.9514465 -5.73188c-1.8604736 -1.3667221 -4.2478027 -2.050087 -7.1619873 -2.050087z" fill-rule="evenodd"/><path fill="#ff0000" d="m358.47226 85.69949l0 8.660576l6.668091 0l0 -8.660576zm0 16.902771l0 44.43251l6.668091 0l0 -44.43251z" fill-rule="evenodd"/><path fill="#ff0000" d="m387.7747 84.653534c-2.9141846 0 -5.182129 0.6089783 -6.803894 1.8269501c-1.6134949 1.208664 -2.7413025 2.7892303 -3.3834229 4.741699c-0.46920776 1.4504013 -0.7038269 3.6678467 -0.7038269 6.6523285l0 4.7277527l-5.8901367 0l0 5.8573914l5.8901367 0l0 38.57512l6.631012 0l0 -38.57512l7.668274 0l0 -5.8573914l-7.668274 0l0 -4.1001816c0 -2.6776657 0.41983032 -4.504608 1.2595215 -5.4808426c0.83966064 -0.97623444 2.2720642 -1.4643478 4.29718 -1.4643478c1.2348328 0 2.5437622 0.1394577 3.9267578 0.41838074l1.0002136 -6.5686493c-2.2720947 -0.50205994 -4.346588 -0.7530899 -6.2235413 -0.7530899zm4.8158264 17.94873l14.929047 44.51619c-0.27166748 0.80888367 -0.46923828 1.4225159 -0.5927124 1.8408966c-0.93847656 2.9844818 -1.6176147 4.8532715 -2.037445 5.606369c-0.5680237 1.0041199 -1.2965698 1.7851105 -2.185669 2.3429565c-0.8890686 0.55784607 -2.0744934 0.8367615 -3.5562744 0.8367615c-1.0866699 0 -2.3585205 -0.22312927 -3.8156128 -0.66941833l0 0l0.74087524 7.070709c1.5805969 0.6136322 3.01297 0.92045593 4.2972107 0.92045593c2.1239014 0 3.9514465 -0.5810852 5.482605 -1.7432709c1.531189 -1.1528778 2.8894958 -2.9705353 4.074951 -5.452957c0.8890686 -1.8408966 2.1362305 -5.2019196 3.741516 -10.083084l14.966095 -45.185608l-6.6680603 0l-8.40918 25.89804c-1.0619507 3.2913055 -1.975708 6.666275 -2.7413025 10.124924c-0.83969116 -3.598114 -1.7904968 -7.0288696 -2.8524475 -10.292267l-8.18689 -25.730698z" fill-rule="evenodd"/><path stroke="#000000" stroke-width="1.0" stroke-linejoin="round" stroke-linecap="butt" d="m200.3281 85.69949l0 61.33528l7.186676 0l0 -61.33528z" fill-rule="evenodd"/><path stroke="#000000" stroke-width="1.0" stroke-linejoin="round" stroke-linecap="butt" d="m219.18388 85.69949l0 61.33528l6.6680603 0l0 -61.33528z" fill-rule="evenodd"/><path stroke="#000000" stroke-width="1.0" stroke-linejoin="round" stroke-linecap="butt" d="m236.03926 85.69949l0 61.33528l6.6680603 0l0 -61.33528z" fill-rule="evenodd"/><path stroke="#000000" stroke-width="1.0" stroke-linejoin="round" stroke-linecap="butt" d="m252.89464 102.602264l0 27.529755c0 3.207611 0.13583374 5.5505676 0.40748596 7.0288696c0.39515686 2.2034912 1.0784302 4.067627 2.04982 5.592407c0.9796295 1.5154877 2.4737701 2.775299 4.4824066 3.779419c2.0169067 1.0041199 4.1860657 1.5061951 6.507538 1.5061951c5.260376 0 9.421722 -2.510315 12.4841 -7.530945l0 6.5268097l5.964203 0l0 -44.43251l-6.6680603 0l0 23.806122c0 3.7933502 -0.366333 6.689514 -1.098999 8.688461c-0.72442627 1.9896545 -1.9633789 3.565567 -3.7168274 4.7277527c-1.7534485 1.1528931 -3.630371 1.7293243 -5.6307983 1.7293243c-2.0004272 0 -3.679779 -0.56248474 -5.038086 -1.6874847c-1.3583069 -1.1342926 -2.2473755 -2.6916046 -2.6672363 -4.6719666c-0.27166748 -1.3667297 -0.4074707 -4.0164948 -0.4074707 -7.949318l0 -24.64289z" fill-rule="evenodd"/><path stroke="#000000" stroke-width="1.0" stroke-linejoin="round" stroke-linecap="butt" d="m313.12946 101.59814c-2.6178284 0 -4.95166 0.66477203 -7.001465 1.9943008c-2.0498047 1.3202438 -3.6921387 3.068161 -4.926941 5.243767l0 -6.23394l-5.9642334 0l0 44.43251l6.6680603 0l0 -23.053024c0 -4.0443954 0.35812378 -7.140442 1.0743103 -9.288155c0.7161865 -2.1477127 1.8687134 -3.7794113 3.4575195 -4.895111c1.5970459 -1.1156921 3.334015 -1.6735382 5.210968 -1.6735382c2.469635 0 4.2478027 0.8367691 5.334442 2.510315c1.0866394 1.6735382 1.6299744 4.183853 1.6299744 7.5309296l0 28.868584l6.6680603 0l0 -25.81437c0 -4.5743484 0.9137573 -7.8981857 2.7413025 -9.971512c1.8275452 -2.082634 4.1243286 -3.1239471 6.8903503 -3.1239471c1.5311584 0 2.8647766 0.40444183 4.000824 1.2133179c1.1360474 0.80887604 1.9180908 1.8780899 2.346161 3.2076187c0.4363098 1.3202438 0.65448 3.4865494 0.65448 6.4989166l0 27.989975l6.631012 0l0 -30.500282c0 -5.0764084 -1.0496216 -8.832581 -3.1488037 -11.268509c-2.0992126 -2.4452286 -5.0998535 -3.6678467 -9.001892 -3.6678467c-4.9887085 0 -9.03894 2.5939865 -12.150696 7.781967c-0.7655945 -2.4545288 -2.0827332 -4.3651505 -3.9514465 -5.73188c-1.8604736 -1.3667221 -4.2478027 -2.050087 -7.1619873 -2.050087z" fill-rule="evenodd"/><path stroke="#000000" stroke-width="1.0" stroke-linejoin="round" stroke-linecap="butt" d="m358.47226 85.69949l0 8.660576l6.668091 0l0 -8.660576zm0 16.902771l0 44.43251l6.668091 0l0 -44.43251z" fill-rule="evenodd"/><path stroke="#000000" stroke-width="1.0" stroke-linejoin="round" stroke-linecap="butt" d="m387.7747 84.653534c-2.9141846 0 -5.182129 0.6089783 -6.803894 1.8269501c-1.6134949 1.208664 -2.7413025 2.7892303 -3.3834229 4.741699c-0.46920776 1.4504013 -0.7038269 3.6678467 -0.7038269 6.6523285l0 4.7277527l-5.8901367 0l0 5.8573914l5.8901367 0l0 38.57512l6.631012 0l0 -38.57512l7.668274 0l0 -5.8573914l-7.668274 0l0 -4.1001816c0 -2.6776657 0.41983032 -4.504608 1.2595215 -5.4808426c0.83966064 -0.97623444 2.2720642 -1.4643478 4.29718 -1.4643478c1.2348328 0 2.5437622 0.1394577 3.9267578 0.41838074l1.0002136 -6.5686493c-2.2720947 -0.50205994 -4.346588 -0.7530899 -6.2235413 -0.7530899zm4.8158264 17.94873l14.929047 44.51619c-0.27166748 0.80888367 -0.46923828 1.4225159 -0.5927124 1.8408966c-0.93847656 2.9844818 -1.6176147 4.8532715 -2.037445 5.606369c-0.5680237 1.0041199 -1.2965698 1.7851105 -2.185669 2.3429565c-0.8890686 0.55784607 -2.0744934 0.8367615 -3.5562744 0.8367615c-1.0866699 0 -2.3585205 -0.22312927 -3.8156128 -0.66941833l0 0l0.74087524 7.070709c1.5805969 0.6136322 3.01297 0.92045593 4.2972107 0.92045593c2.1239014 0 3.9514465 -0.5810852 5.482605 -1.7432709c1.531189 -1.1528778 2.8894958 -2.9705353 4.074951 -5.452957c0.8890686 -1.8408966 2.1362305 -5.2019196 3.741516 -10.083084l14.966095 -45.185608l-6.6680603 0l-8.40918 25.89804c-1.0619507 3.2913055 -1.975708 6.666275 -2.7413025 10.124924c-0.83969116 -3.598114 -1.7904968 -7.0288696 -2.8524475 -10.292267l-8.18689 -25.730698z" fill-rule="evenodd"/></g></svg>