<svg version="1.1" viewBox="0.0 0.0 616.7874015748032 161.68241469816272" fill="none" stroke="none" stroke-linecap="square" stroke-miterlimit="10" xmlns:xlink="http://www.w3.org/1999/xlink" xmlns="http://www.w3.org/2000/svg"><clipPath id="p.0"><path d="m0 0l616.7874 0l0 161.68242l-616.7874 0l0 -161.68242z" clip-rule="nonzero"/></clipPath><g clip-path="url(#p.0)"><path fill="#000000" fill-opacity="0.0" d="m0 0l616.7874 0l0 161.68242l-616.7874 0z" fill-rule="evenodd"/><path fill="#000000" fill-opacity="0.0" d="m-29.099737 -73.6168l667.43304 0l0 285.70078l-667.43304 0z" fill-rule="evenodd"/><path stroke="#ffff00" stroke-width="1.0" stroke-linejoin="round" stroke-linecap="butt" d="m-29.099737 -73.6168l667.43304 0l0 285.70078l-667.43304 0z" fill-rule="evenodd"/><path fill="#b46295" d="m33.804283 23.738594l0 91.375l-20.124998 0l0 -91.375l20.124998 0zm37.75 0l0 74.5l44.5625 0l0 16.875l-64.6875 0l0 -91.375l20.125 0zm75.87501 0l0 74.5l44.5625 0l0 16.875l-64.68751 0l0 -91.375l20.125008 0zm75.5 0l0 57.375q0 9.875 4.53125 14.5625q4.53125 4.6875 14.28125 4.6875q10.5 0 14.71875 -4.59375q4.21875 -4.59375 4.21875 -14.59375l0 -57.4375l20.0625 0l0 57.4375q0 17.0 -9.90625 26.5625q-9.90625 9.5625 -29.09375 9.5625q-19.3125 0 -29.125 -9.40625q-9.8125 -9.40625 -9.8125 -26.71875l0 -57.4375l20.125 0zm103.4375 0l21.375 62.8125l0.25 0l20.1875 -62.5625l0.125 -0.25l28.1875 0l0 91.375l-18.8125 0l0 -64.75l-0.25 0l-22.375 64.75l-15.5 0l-22.4375 -64.125l-0.25 0l0 64.125l-18.8125 0l0 -91.375l28.3125 0zm107.9375 0l0 91.375l-20.125 0l0 -91.375l20.125 0zm81.87503 0l0 16.875l-44.12503 0l0 21.125l38.25003 0l0 15.625l-38.25003 0l0 37.75l-20.125 0l0 -91.375l64.25003 0zm24.3125 0l21.375 36.0625l21.25 -36.0625l22.375 0l-33.875 56.3125l0 35.0625l-20.125 0l0 -35.5625l-33.625 -55.8125l22.625 0z" fill-rule="nonzero"/></g></svg>