<svg viewBox="0 0 512 512" xmlns="http://www.w3.org/2000/svg"><defs><linearGradient x1="159.1907" y1="150.5743" x2="158.244" y2="228.2006" id="gradient289" gradientUnits="userSpaceOnUse"><stop offset="0%" stop-color="rgb(20,30,36)"/><stop offset="100%" stop-color="rgb(233,108,76)"/></linearGradient><linearGradient x1="281.3987" y1="155.369" x2="282.3483" y2="228.4875" id="gradient290" gradientUnits="userSpaceOnUse"><stop offset="0%" stop-color="rgb(20,30,36)"/><stop offset="100%" stop-color="rgb(233,108,76)"/></linearGradient></defs><g id="Layer_1"><path d="M197.3931,268.1016 C244.0153,270.2292 287.5868,284.8064 309.7265,316.2156 C325.1375,338.0788 329.0382,365.4576 318.6774,388.3169 C304.3249,419.9833 264.9991,437.571 217.216,437.571 L79.2666,437.571 C55.8424,437.571 37.2314,420.7278 30.1799,396.8593 C25.9736,382.6216 26.5537,366.9279 31.402,352.2644 C36.0444,338.2239 43.8121,325.7591 55.4005,314.6003 C86.7239,284.4379 141.8881,265.5686 197.3931,268.1016 Z" class="Curve" fill="rgb(20,30,36)"/><path d="M66.4226,308.1741 C59.106,316.8669 53.1013,326.4156 48.4049,336.63 C42.0433,350.4663 38.0086,365.133 38.1882,379.9682 C38.3413,392.6044 41.5553,405.0723 46.6751,416.9129 C48.3072,420.6874 50.1283,424.3817 52.3309,427.873 C48.3934,425.6003 45.0682,422.5556 42.0819,419.2095 C33.7227,409.8432 28.4684,398.2748 27.2746,385.9211 C26.6403,379.3581 27.1601,372.673 28.2667,366.0781 C30.4029,353.3473 34.4565,341.1311 41.4598,330.6771 C47.7217,321.33 56.1831,313.6087 66.4226,308.1741 Z" class="Curve" fill="rgb(49,110,125)"/><path d="M69.1528,304.2811 L84.8416,188.4829 C87.9346,165.6542 90.8651,143.44 99.1037,123.2489 C106.617,104.8351 118.2504,88.5031 134.0778,77.8332 C152.1962,65.619 175.1789,61.4192 198.6379,61.0287 C222.6884,60.6283 246.3795,64.3543 264.1478,76.5101 C276.5818,85.0165 285.708,97.4101 292.2902,111.3938 C302.3955,132.8622 305.875,157.415 303.611,182.5299 L292.3407,307.5553 C260.8281,312.8529 229.0232,315.2019 197.1262,315.2737 C154.4583,315.3697 111.6397,311.2761 69.1528,304.2811 Z" class="Curve" fill="rgb(20,30,36)"/><path d="M142.8051,72.9952 C134.9521,83.2361 128.938,94.5764 124.0522,106.9591 C115.3345,129.054 110.8771,154.7633 103.6284,179.8728 L70.3766,295.0563 L85.7756,177.607 C89.7585,147.2298 97.595,118.3483 112.8037,97.8077 C120.8482,86.9429 130.7015,78.4703 142.8051,72.9952 Z" class="Curve" fill="rgb(49,110,125)"/><path d="M221.8075,62.8984 C202.1375,62.1836 182.7799,68.1335 168.6876,80.8372 C155.1944,93.0008 147.4525,110.9543 141.6192,129.8672 C134.9189,151.591 131.5336,174.082 130.2662,197.0722 L178.8427,205.8317 C189.002,191.915 203.3226,184.0289 219.3085,183.8913 C236.5103,183.7432 251.9265,192.5368 263.2484,207.6002 L303.3645,193.1266 C305.6814,172.6291 304.9562,152.3298 300.1235,132.7671 C295.8903,115.6306 288.9335,99.4442 277.4089,87.2263 C263.1523,72.1121 242.9814,63.6678 221.8075,62.8984 Z" class="Curve" fill="rgb(49,110,125)"/><path d="M231.8408,286.303 L231.4103,294.2739 C231.2295,297.6228 228.3069,299.7729 224.6877,300.0054 C220.8736,300.2504 217.804,298.4036 217.9651,295.4202 L218.3956,287.4493 C218.6107,283.4669 221.5014,280.8017 225.1182,280.5715 C228.9333,280.3286 232.0349,282.7088 231.8408,286.303 Z" class="Curve" fill="rgb(49,110,125)"/><path d="M208.6338,286.5048 L208.2033,294.4757 C208.0225,297.8246 205.0999,299.9747 201.4807,300.2072 C197.6666,300.4522 194.597,298.6054 194.7581,295.622 L195.1886,287.6511 C195.4037,283.6688 198.2944,281.0035 201.9112,280.7733 C205.7263,280.5304 208.8279,282.9106 208.6338,286.5048 Z" class="Curve" fill="rgb(49,110,125)"/><path d="M185.4076,285.7058 L185.006,291.7615 C184.7597,295.4762 181.6615,297.8616 177.8601,297.9104 C174.2436,297.9568 171.3585,295.9584 171.5608,292.9078 L171.9624,286.8522 C172.2264,282.8702 175.101,280.2193 178.685,279.9743 C182.5316,279.7114 185.6459,282.1119 185.4076,285.7058 Z" class="Curve" fill="rgb(49,110,125)"/><path d="M253.7984,285.6284 L253.3968,291.6841 C253.1505,295.3987 250.0523,297.7842 246.2509,297.8329 C242.6344,297.8793 239.7493,295.881 239.9516,292.8304 L240.3532,286.7747 C240.6172,282.7927 243.4918,280.1418 247.0758,279.8968 C250.9224,279.6339 254.0367,282.0344 253.7984,285.6284 Z" class="Curve" fill="rgb(49,110,125)"/><path d="M199.0832,171.1941 C204.9047,168.8586 211.0161,167.6739 217.171,167.6067 C223.8406,167.5338 230.4804,168.774 236.8613,171.1761 C250.8154,153.6789 271.5505,147.232 291.5267,150.7751 C319.7229,155.7762 340.2738,177.8119 341.7052,204.2487 C343.2499,232.7777 322.9345,257.7406 293.0898,262.7857 C273.6867,266.0657 253.3561,259.2431 240.5057,243.9348 C230.5584,232.0849 226.2137,216.2108 230.4042,199.8756 C227.9035,198.7678 225.2462,198.2106 222.5522,198.0999 C218.909,197.9503 215.2168,198.6376 211.6393,199.8937 C214.6647,219.7593 207.3837,237.8907 193.7021,250.1179 C176.4861,265.5037 152.2466,269.6788 130.9218,260.8802 C112.0694,253.1018 98.2459,236.1479 95.0473,216.0371 C92.0374,197.112 98.938,177.6759 112.9846,164.0192 C126.8593,150.5296 146.2337,144.3202 165.0025,147.8757 C178.7895,150.4875 191.2053,158.3504 199.0832,171.1941 Z" class="Curve" fill="rgb(233,108,76)" opacity="0.2"/><path d="M197.2895,176.5753 C204.144,173.1716 211.5048,171.386 218.9647,171.1941 C227.1204,170.9843 235.2432,172.6822 242.953,176.0334 C255.4027,158.5021 275.1435,151.729 294.0819,155.6333 C317.7967,160.5222 335.0162,180.0842 336.7444,203.2566 C338.8112,230.9674 319.6188,254.9828 291.1055,258.8171 C274.3966,261.064 256.9528,254.9343 245.4665,241.9505 C234.7455,229.8319 230.495,213.0564 235.2615,195.9897 C231.2768,193.8906 226.943,192.8411 222.5522,192.7188 C217.0332,192.565 211.5033,193.8911 206.2581,196.3062 C210.2049,215.9588 203.6517,234.317 190.1146,246.5304 C174.927,260.233 153.5324,264.4616 134.5092,257.2928 C116.7577,250.6032 103.6678,234.8818 100.4285,216.0371 C97.3937,198.3824 103.5045,180.1679 116.572,167.6067 C128.9486,155.7095 146.27,150.298 163.2088,153.2569 C177.0268,155.6706 189.4559,163.6391 197.2895,176.5753 Z" class="Curve" fill="rgb(233,108,76)" opacity="0.2"/><path d="M288.7393,160.2106 C313.4333,162.0715 332.7424,183.3487 331.7469,208.8278 C330.822,232.4994 312.2203,251.8449 288.7393,253.7052 C262.5344,255.7814 240.2748,236.2062 238.2522,210.6977 C235.9385,181.5184 259.5826,157.8472 288.7393,160.2106 Z" class="Curve" fill="rgb(255,255,255)"/><path d="M153.6699,157.5755 C181.1442,157.5211 203.1306,180.088 202.1004,207.7997 C201.1363,233.7324 179.8274,254.4365 153.6699,254.4365 C127.5124,254.4365 106.2035,233.7324 105.2394,207.7997 C104.2091,180.088 126.1956,157.5211 153.6699,157.5755 Z" class="Curve" fill="rgb(255,255,255)"/><path d="M220.7915,179.9923 C230.9817,179.9233 240.9757,182.8195 249.93,188.5081 L245.9178,200.5448 C238.7045,195.621 230.552,192.956 222.1604,192.6661 C213.1397,192.3545 204.2226,194.7931 196.0755,199.5741 L190.2696,189.5436 C199.6391,183.4044 210.0772,180.0649 220.7915,179.9923 Z" class="Curve" fill="rgb(255,255,255)"/><path d="M153.8809,170.2697 C173.5614,170.2746 189.8007,184.5899 191.5335,202.7878 C193.7117,225.6641 174.3153,244.2695 150.4579,242.1518 C129.9498,240.3314 114.3198,222.8958 116.2283,202.7878 C117.9697,184.4409 134.2686,170.2416 153.8809,170.2697 Z" class="Curve" fill="url(#gradient289)"/><path d="M288.9804,173.3368 C307.6963,175.0474 322.1587,190.6982 321.1947,209.1304 C320.3139,225.971 306.389,239.6766 288.9804,241.3446 C268.1475,243.3407 250.6173,228.46 249.6075,209.1304 C248.5049,188.0249 266.7946,171.1394 288.9804,173.3368 Z" class="Curve" fill="url(#gradient290)"/><path d="M171.156,188.6767 C178.6928,188.4228 185.7593,191.5963 191.148,197.6444 L179.2478,194.9175 C179.1977,204.47 174.364,211.4751 168.0853,211.1209 C162.4586,210.8035 158.4799,204.6637 159.0539,196.5809 L149.8924,200.4898 C155.4378,193.2987 162.868,188.9559 171.156,188.6767 Z" class="Curve" fill="rgb(20,30,36)" opacity="0.1"/><path d="M266.5272,187.5588 C273.8719,187.4932 280.6314,190.8585 285.5399,197.0651 L274.5386,193.3219 C275.075,202.2552 270.8638,209.0672 264.869,209.0825 C259.3662,209.0966 255.1974,203.3216 255.4009,195.4483 L245.138,199.4417 C250.6991,192.0646 258.1943,187.6332 266.5272,187.5588 Z" class="Curve" fill="rgb(20,30,36)" opacity="0.1"/><path d="M125.0996,229.1274 L137.1518,197.3533 C138.4256,193.9952 140.7478,191.875 143.7258,191.875 L187.5521,191.875 C182.3181,181.2537 173.044,174.5008 162.352,172.1532 C147.7304,168.9429 132.9791,173.7854 124.0039,185.3011 C118.8074,191.9687 116.153,200.4376 116.708,209.0185 C117.1798,216.3133 119.9509,223.3838 125.0996,229.1274 Z" class="Curve" fill="rgb(20,30,36)" opacity="0.5"/><path d="M258.4281,229.5287 L270.1113,200.7661 C271.537,197.2562 273.9272,195.0286 276.9856,195.0375 L318.0056,195.1571 C313.6917,184.0388 304.6257,176.9492 293.9455,174.5342 C277.5734,170.8321 261.6133,177.6836 253.8453,191.72 C247.2618,203.6159 248.5641,218.0792 258.4281,229.5287 Z" class="Curve" fill="rgb(20,30,36)" opacity="0.5"/><path d="M212.5606,418.9485 L268.8537,276.1418 C279.6593,248.7297 304.544,233.3969 335.8854,233.3969 L488.9922,233.3969 C503.6704,233.3969 509.1771,251.7577 501.6213,271.2844 L448.2426,409.2337 C445.8814,415.3358 440.8365,418.9485 434.4753,418.9485 L212.5606,418.9485 Z" class="Curve" fill="rgb(139,188,199)" opacity="0.2"/><path d="M224.0516,418.9485 L280.3447,276.1418 C289.5165,252.8745 309.1208,239.2258 333.7758,239.2258 L486.8825,239.2258 C501.3586,239.2258 508.0081,254.7788 501.6213,271.2844 L448.2426,409.2337 C445.8814,415.3358 440.8365,418.9485 434.4753,418.9485 L224.0516,418.9485 Z" class="Curve" fill="rgb(139,188,199)" opacity="0.4"/><path d="M235.7093,418.9485 L292.0024,276.1418 C299.0028,258.3829 313.975,247.969 332.8043,247.969 L485.9111,247.969 C498.7602,247.969 506.3013,259.1898 501.6213,271.2844 L448.2426,409.2337 C445.8814,415.3358 440.8365,418.9485 434.4753,418.9485 L235.7093,418.9485 Z" class="Curve" fill="rgb(255,255,255)"/><path d="M295.6317,294.0684 C304.8674,271.1391 317.7153,255.2607 335.4622,255.2095 L487.854,254.7694 C499.5718,254.7355 506.1325,265.5572 501.6213,277.1133 L444.3567,423.8058 C439.7131,435.7013 423.3425,437.483 403.0828,437.483 L167.1442,437.483 C164.4542,437.483 162.1044,436.7166 160.5847,435.0698 C158.6983,433.0258 158.2495,429.7914 158.2808,426.4543 C158.3112,423.2081 158.7911,420.0553 160.58,417.8325 C162.32,415.6704 165.1417,414.5312 168.3686,414.5312 L247.1104,414.5312 L295.6317,294.0684 Z" class="Curve" fill="rgb(20,30,36)"/><path d="M171.8782,410.6763 C175.037,410.0007 178.0169,409.0856 180.2126,407.204 C183.0912,404.7371 184.3412,400.9342 183.4758,397.3657 C182.8495,394.7832 181.0705,392.5521 178.6967,391.01 C177.3774,390.153 175.8998,389.5284 174.2922,389.33 C176.219,389.001 178.1337,388.6412 180.032,388.1821 C182.1383,387.6726 184.2078,387.1306 185.7717,385.8862 C187.7579,384.3058 188.8737,381.7472 189.2156,378.9984 C189.5153,376.5896 189.2275,374.1577 188.0677,372.1107 C186.363,369.1021 182.9485,367.1468 178.884,366.3709 C181.292,366.5907 183.6379,366.1824 185.7717,365.2229 C188.2231,364.1207 190.3132,362.3775 191.6921,360.1378 C193.4539,357.2763 193.9975,353.8715 192.8401,350.9542 C191.9773,348.7796 190.2051,347.0043 188.0677,345.7077 C185.5358,344.1718 182.579,343.3846 179.5021,342.8602 C174.1116,341.9415 168.4922,341.9578 162.8126,342.2638 C164.0593,336.5324 164.955,330.8275 165.1085,325.0445 C165.225,320.6578 165.017,316.3686 162.8126,313.5649 C161.1949,311.5074 158.6315,310.3351 155.9249,310.121 C152.5136,309.8512 149.1041,311.0914 146.7412,313.5649 C143.6878,316.7614 142.5835,321.7931 141.1821,326.8471 C139.2211,333.9191 136.6303,340.8916 131.9984,345.2144 C128.9043,348.102 124.894,349.8195 121.5358,352.5318 C115.8547,357.1203 112.2112,364.3261 110.0066,372.1107 C107.6304,380.5019 107.2269,389.4222 109.826,396.7111 C111.2697,400.7594 113.5339,404.2296 116.8944,406.5494 C122.1576,410.1825 129.7994,410.8025 137.5576,408.8453 C142.8991,410.354 148.2931,411.4479 153.8096,411.7958 C159.892,412.1795 166.0364,411.9259 171.8782,410.6763 Z" class="Curve" fill="rgb(139,188,199)"/><path d="M114.5263,357.2338 C118.0242,353.3468 122.999,350.8476 127.4066,347.5103 C131.0227,344.7722 134.2176,341.4567 136.4096,337.672 C140.8916,329.9336 140.9941,320.1238 145.5933,314.5763 C148.3048,311.3056 152.3398,309.5159 156.827,310.1757 C154.747,311.1598 153.051,312.6475 151.7161,314.5763 C149.452,317.8475 148.2959,322.2914 147.1943,326.7684 C146.1492,331.0161 145.1523,335.0786 146.8505,337.4707 C148.1176,339.2557 150.7828,339.9753 153.5884,340.3516 C156.8082,340.7834 160.0825,340.7082 163.3708,340.236 L162.9663,342.4045 C156.3547,341.8404 150.2908,343.1126 146,347 C142.7892,349.9089 140.8208,353.9238 141.1821,357.8419 C141.403,360.2376 142.4473,362.4954 144.4453,364.075 C140.4139,366.9598 137.9285,370.9645 137.5576,375.5545 C137.1955,380.0349 138.9164,384.2903 142.33,387.6888 C138.7183,390.5234 136.5514,394.3043 136.4096,398.5137 C136.2787,402.4005 137.9071,406.0444 141.0015,408.8453 C134.4345,411.3897 127.5677,411.886 121.4862,409.9932 C116.7258,408.5117 112.5458,405.6159 109.826,401.3029 C105.1767,393.9301 105.1402,382.9307 107.7107,372.1107 C109.0256,366.5758 110.9492,361.2087 114.5263,357.2338 Z" class="Curve" fill="rgb(49,110,125)"/><path d="M398.7672,341.9387 C402.9252,347.8988 409.8353,350.0526 417.5325,348.3489 C417.0764,350.5419 416.0664,352.5172 414.8755,354.3676 C409.5992,362.5664 401.5241,367.9747 392.3578,368.7663 C386.3512,369.285 380.3575,367.8464 376.0413,364.1077 C369.0692,358.0682 367.151,347.6244 370.8754,338.165 C374.3068,329.4498 382.2927,323.1595 392.2176,320.4297 C394.7427,319.7353 397.3496,319.3138 400.0031,319.5833 C395.0383,327.1557 394.1567,335.3297 398.7672,341.9387 Z" class="Curve" fill="rgb(49,110,125)"/><path d="M394.7455,344.5384 C398.1432,349.5768 403.6602,352.4792 410.218,352.6994 C405.7943,359.3508 399.6395,363.843 392.8256,364.7354 C387.612,365.4182 382.3799,363.9637 378.7162,360.5507 C373.2836,355.49 371.9914,347.1326 374.8094,339.4964 C377.6244,331.8681 384.3237,326.3544 393.2335,324.5978 C390.5804,331.728 390.9169,338.8609 394.7455,344.5384 Z" class="Curve" fill="rgb(139,188,199)"/></g></svg>