<svg xmlns="http://www.w3.org/2000/svg" viewBox="0 0 842.3 1000.0" width="842.3" height="1000.0">
  <path fill="white" d="m 824.6,779.3 c -15.1,34.9 -33.0,67.0 -53.7,96.6 -28.2,40.3 -51.4,68.2 -69.2,83.7 -27.6,25.4 -57.2,38.4 -89.0,39.1 -22.7,0 -50.2,-6.4 -82.2,-19.6 -32.0,-13.0 -61.5,-19.5 -88.5,-19.5 -28.2,0 -58.5,6.4 -91.0,19.5 -32.4,13.1 -58.6,19.9 -78.6,20.6 -30.4,1.2 -60.7,-12.0 -91.0,-40.2 -19.3,-16.8 -43.4,-45.7 -72.4,-86.6 C 77.7,829.3 52.1,778.6 32.1,720.8 10.7,658.4 0,598.0 0,539.5 0,472.4 14.4,414.6 43.4,366.2 66.2,327.3 96.6,296.6 134.5,274.1 c 37.9,-22.5 78.9,-34.0 123.1,-34.7 24.1,0 55.8,7.4 95.2,22.1 39.2,14.7 64.4,22.2 75.5,22.2 8.2,0 36.2,-8.7 83.7,-26.1 44.9,-16.1 82.8,-22.8 113.8,-20.2 84.1,6.7 147.3,39.9 189.3,99.7 -75.2,45.5 -112.4,109.4 -111.7,191.3 0.6,63.8 23.8,116.9 69.3,159.0 20.6,19.5 43.6,34.6 69.2,45.4 -5.5,16.1 -11.4,31.5 -17.6,46.3 z M 631.7,20.0 c 0,50.0 -18.2,96.7 -54.6,139.9 -43.9,51.3 -97.1,81.0 -154.7,76.3 -0.7,-5.9 -1.1,-12.3 -1.1,-18.9 0,-48.0 20.9,-99.3 58.0,-141.4 C 497.6,54.6 521.2,37.0 549.7,22.9 578.3,9.0 605.2,1.3 630.6,0 c 0.7,6.6 1.0,13.3 1.0,20.0 z"/>
</svg>