<svg viewBox="0 0 32 16" xmlns="http://www.w3.org/2000/svg">
    <path fill="#e96c4c" d="M0,16 C1.0849,6.3722 7.3697,3.1707e-15 16,0 C24.6303,-2.1138e-15 30.9151,6.3722 32,16 L0,16 Z"/>
    <path fill="#00222b" d="M32,16 L22,16 C21.9923,13.7378 22.6613,11.6513 24,10 C25.2399,8.4707 26.9687,7.4251 29,7 C29.8475,8.245 30.5115,9.5907 31,11 C31.556,12.6042 31.8812,14.2844 32,16 Z"/>
    <path fill="#00222b" d="M13.5,4.5 C13.498,3.1165 14.6134,1.9985 16,2 C17.383,2.0015 18.5,3.1172 18.5,4.5 C18.5,5.8828 17.383,6.9985 16,7 C14.6134,7.0015 13.498,5.8835 13.5,4.5 Z"/>
    <path fill="#00222b" d="M4.5,10.5 C4.498,9.1165 5.6134,7.9985 7,8 C8.383,8.0015 9.5,9.1172 9.5,10.5 C9.5,11.8828 8.383,12.9985 7,13 C5.6134,13.0015 4.498,11.8835 4.5,10.5 Z"/>
    <path fill="#ffffff" d="M26,12 C25.9984,10.8932 26.8907,9.9988 28,10 C29.1064,10.0012 30,10.8937 30,12 C30,13.1062 29.1064,13.9988 28,14 C26.8907,14.0012 25.9984,13.1068 26,12 Z"/>
</svg>
