<svg xmlns="http://www.w3.org/2000/svg" viewBox="0 0 32 32"><defs><linearGradient id="gradient857" x1="10.105" x2="10.105" y1="13.474" y2="16.842" gradientUnits="userSpaceOnUse"><stop offset="0%" stop-color="#141E24"/><stop offset="100%" stop-color="#E96C4C"/></linearGradient><linearGradient id="gradient858" x1="23.579" x2="23.579" y1="13.474" y2="16.842" gradientUnits="userSpaceOnUse"><stop offset="0%" stop-color="#141E24"/><stop offset="100%" stop-color="#E96C4C"/></linearGradient></defs><g><path fill="transparent" d="M0.0115,1.6829e-15 L0.0115,32 L31.9996,32 L31.9996,7.4794e-16 L0.0115,7.4794e-16 L0.0115,1.6829e-15 Z" opacity="1"/><path fill="#141E24" d="M16,1.6842 C19.2177,1.6519 22.308,2.9058 24.4223,5.2143 C26.7632,7.7703 27.6783,11.3743 26.9474,15.1579 L32,30.3158 L4.7793e-16,30.3158 L5.0527,15.1546 C4.463,11.3414 5.4301,7.7515 7.7901,5.2093 C9.8734,2.9651 12.8707,1.7156 16,1.6842 Z" opacity="1"/><path fill="#2F7485" d="M13.8182,1.9072 C12.7586,2.1804 11.8132,2.7107 11.0206,3.4238 C10.025,4.3195 9.2979,5.4964 8.7358,6.7568 C7.8899,8.6536 7.4584,10.7115 7.6573,12.609 C7.752,13.5129 7.9884,14.3669 8.4211,15.1579 L1.6842,30.3158 L-5.168e-16,30.3158 L5.0526,15.1579 C4.8918,14.2275 4.8438,13.2886 4.893,12.3525 C4.9653,10.9758 5.2342,9.6232 5.7528,8.363 C6.3775,6.845 7.3421,5.4935 8.5797,4.421 C9.6248,3.5152 10.8484,2.8318 12.1654,2.354 C12.7021,2.1594 13.2521,2.0012 13.8182,1.9072 Z" opacity="1"/><path fill="#2F7485" d="M15.4331,1.9213 C14.2189,2.281 13.1833,3.1527 12.4178,4.2668 C11.3306,5.8492 10.8673,7.8595 10.6493,9.9256 C10.4065,12.2269 10.5593,14.5301 10.9335,16.8422 L23.4357,16.8422 C24.1642,14.8503 24.4807,12.7943 24.3233,10.7262 C24.1466,8.4035 23.4653,6.1775 22.0754,4.4667 C21.0974,3.263 19.8067,2.3569 18.3573,1.9531 C17.3863,1.6826 16.3725,1.643 15.4331,1.9213 Z" opacity="1"/><path fill="#8BBCC7" d="M10.9474,26.9317 C10.9474,25.8286 12.6316,25.8286 12.6316,26.9317 L12.6316,28.6159 C12.6316,29.7338 10.9474,29.768 10.9474,28.679 L10.9474,26.9317 Z" opacity="1"/><path fill="#8BBCC7" d="M14.3174,25.2475 C14.3179,24.1455 16,24.1457 16,25.2475 L16,28.6159 C16,29.7193 14.3153,29.7191 14.3158,28.6159 L14.3174,25.2475 Z" opacity="1"/><path fill="#8BBCC7" d="M21.0526,26.9317 C21.0526,25.8286 22.7368,25.8286 22.7368,26.9317 L22.7368,28.6159 C22.7368,29.719 21.0526,29.719 21.0526,28.6159 L21.0526,26.9317 Z" opacity="1"/><path fill="#E96C4C" d="M10.1198,10.1048 C13.8413,10.1073 16.8462,13.1115 16.8421,16.8421 C16.838,20.5697 13.8313,23.5791 10.1053,23.5789 C6.3789,23.5788 3.3727,20.5684 3.3684,16.8421 C3.3642,13.0995 6.3849,10.0914 10.1198,10.1048 Z" opacity=".5"/><path fill="#E96C4C" d="M23.5935,10.1053 C27.315,10.1078 30.3199,13.112 30.3158,16.8426 C30.3117,20.5702 27.305,23.5796 23.5789,23.5794 C19.8525,23.5793 16.8464,20.5689 16.8421,16.8426 C16.8378,13.1 19.8586,10.0919 23.5935,10.1053 Z" opacity=".5"/><path fill="#E96C4C" d="M10.118,10.9469 C13.3743,10.9491 16.0036,13.5778 16,16.8421 C15.9964,20.1037 13.3656,22.7369 10.1053,22.7368 C6.8447,22.7366 4.2143,20.1026 4.2106,16.8421 C4.2068,13.5673 6.85,10.9352 10.118,10.9469 Z" opacity=".5"/><path fill="#E96C4C" d="M23.5917,10.9474 C26.848,10.9496 29.4773,13.5783 29.4737,16.8426 C29.4701,20.1042 26.8393,22.7374 23.579,22.7373 C20.3184,22.7371 17.688,20.1031 17.6842,16.8426 C17.6805,13.5678 20.3237,10.9357 23.5917,10.9474 Z" opacity=".5"/><path fill="#FFF" d="M13.4737,18.5263 C14.3629,17.4512 15.5401,16.8421 16.8421,16.8421 C18.1441,16.8421 19.3213,17.4512 20.2105,18.5263 L20.2105,16.8421 C20.2105,15.6894 18.7053,15.1579 16.8421,15.1579 C14.9789,15.1579 13.4737,15.6894 13.4737,16.8421 L13.4737,18.5263 Z" opacity="1"/><path fill="#FFF" d="M10.1053,11.7895 C12.9013,11.7854 15.161,14.0397 15.1579,16.8421 C15.1548,19.6373 12.9,21.8947 10.1053,21.8947 C7.3105,21.8947 5.0557,19.6373 5.0526,16.8421 C5.0496,14.0397 7.3092,11.7854 10.1053,11.7895 Z" opacity="1"/><path fill="#FFF" d="M23.5789,11.7895 C26.375,11.7854 28.6347,14.0397 28.6316,16.8421 C28.6285,19.6373 26.3737,21.8947 23.5789,21.8947 C20.7842,21.8947 18.5294,19.6373 18.5263,16.8421 C18.5232,14.0397 20.7829,11.7854 23.5789,11.7895 Z" opacity="1"/><path fill="url(#gradient857)" d="M10.1053,13.4737 C11.9693,13.471 13.4757,14.9739 13.4737,16.8421 C13.4716,18.7056 11.9684,20.2105 10.1053,20.2105 C8.2421,20.2105 6.7389,18.7056 6.7368,16.8421 C6.7348,14.9739 8.2412,13.471 10.1053,13.4737 Z" opacity="1"/><path fill="url(#gradient858)" d="M23.5789,13.4737 C25.443,13.471 26.9494,14.9739 26.9474,16.8421 C26.9453,18.7056 25.4421,20.2105 23.5789,20.2105 C21.7158,20.2105 20.2126,18.7056 20.2105,16.8421 C20.2085,14.9739 21.7149,13.471 23.5789,13.4737 Z" opacity="1"/><path fill="#8BBCC7" d="M17.6858,25.2475 C17.6863,24.1455 19.3684,24.1457 19.3684,25.2475 L19.3684,28.6159 C19.3684,29.7193 17.6837,29.7191 17.6842,28.6159 L17.6858,25.2475 Z" opacity="1"/></g></svg>