<svg xmlns="http://www.w3.org/2000/svg" xmlns:svg="http://www.w3.org/2000/svg" id="svg4041" width="32" height="32" version="1.1"><metadata id="metadata4046"/><g id="layer1" transform="translate(0,-1020.3622)"><g id="g4162" transform="translate(-36,1.9999631)"><path style="fill:#a16133;fill-opacity:1;fill-rule:evenodd" id="path6-0" d="m 39.545764,1045.9355 c 5.05319,-5.0532 3.92819,-19.1517 14.03367,-19.1517 10.10547,0 8.296,12.4142 11.66472,19.1517 -5.05296,0 -9.98048,-0.625 -11.66472,-5.6782 -3.36872,3.3687 -5.61176,5.6782 -14.03367,5.6782 z"/><path style="fill:#e2a776;fill-rule:evenodd;fill-opacity:1" id="path8-7" d="m 51.540224,1048.6785 c 7.61176,0 11.2608,-10.1061 11.2608,-15.1587 0,-5.0522 -1.68447,-11.789 -10.10547,-11.789 -8.42123,0 -11.77019,5.0363 -11.77019,13.4684 0,8.432 3.8781,13.4793 10.61486,13.4793 z"/><path style="fill:#a16133;fill-opacity:1;fill-rule:evenodd" id="path10-3" d="m 58.415843,1025.3647 c -7.88581,-0.9723 -10.768389,4.6987 -15.820899,6.3832 -0.38955,-1.9214 -0.36419,-4.0418 -3.9974,-2.8043 3.87691,-4.9008 6.25221,-8.9394 13.47929,-8.8973 5.84834,0.034 10.19376,2.1265 11.87811,7.8916 1.94759,6.6661 -1.15392,8.9513 2.21412,12.3194 -6.90156,-1.2734 -5.838007,-12.1774 -7.753221,-14.8926 z"/><path id="path12-4" d="m 41.676134,1040.8496 c 2.45485,0.7908 4.76727,0.3668 6.23003,-0.7171 1.68125,-1.2458 2.72276,-3.3127 2.72382,-5.4053 0.01,-3.5267 -3.19236,-6.7437 -6.71875,-6.75 -3.24979,3.761 -4.16745,7.8744 -2.2351,12.8724 z" style="fill:#93ac93;fill-rule:evenodd"/><path style="fill:#93ac93;fill-rule:evenodd" id="path14-9" d="m 57.374164,1027.989 c 3.52423,10e-5 6.7307,3.207 6.7307,6.7316 0,2.6435 -1.71313,5.2076 -4.15513,6.2192 -2.44199,1.0115 -5.46609,0.4097 -7.33511,-1.4596 -1.86902,-1.8692 -2.47066,-4.8937 -1.45913,-7.3359 1.01153,-2.4422 3.57543,-4.1554 6.21867,-4.1553 z"/><path id="path4002" d="m 42.274334,1039.559 c 5.54113,-4.1516 11.08337,-4.1516 16.62615,0 l 0,-4.1516 c 0,-4.1523 -16.6278,-4.1523 -16.6278,0 l 0.002,4.1516 z" style="fill:#08a;fill-rule:evenodd"/><path id="path4004" d="m 57.374144,1028.6765 c 3.1643,10e-5 6.04329,2.8795 6.04329,6.0441 0,2.3735 -1.53817,4.6758 -3.73076,5.584 -2.19259,0.9082 -4.90784,0.3679 -6.58598,-1.3105 -1.67813,-1.6783 -2.21832,-4.3939 -1.31011,-6.5866 0.90822,-2.1928 3.21027,-3.7311 5.58356,-3.731 z" style="fill:#2c89a0;fill-rule:evenodd"/><path id="path4006" d="m 43.913674,1028.6141 c 3.19704,0 6.10589,2.9091 6.10589,6.1065 0,2.398 -1.55403,4.724 -3.76924,5.6416 -2.21521,0.9177 -4.95848,0.3718 -6.65396,-1.3239 -1.69548,-1.6956 -2.2413,-4.4392 -1.32376,-6.6546 0.91753,-2.2154 3.24329,-3.7696 5.64107,-3.7696 z" style="fill:#2c89a0;fill-rule:evenodd"/><path style="fill:#fff;fill-rule:evenodd" id="path16-6" d="m 47.276994,1036.3999 c 2.24791,-1.6842 4.49627,-1.6842 6.74485,0 l 0,-1.6842 c 0,-1.6845 -6.74552,-1.6845 -6.74552,0 z"/><path style="fill:#fff;fill-rule:evenodd" id="path18-5" d="m 43.913444,1029.673 c 2.64248,10e-5 5.04668,2.4048 5.04668,5.0476 0,1.9822 -1.28453,3.9048 -3.11556,4.6633 -1.83104,0.7585 -4.09854,0.3073 -5.49993,-1.0944 -1.4014,-1.4016 -1.8525,-3.6695 -1.09404,-5.5007 0.75847,-1.8313 2.68092,-3.1159 4.66285,-3.1158 z"/><path style="fill:#fff;fill-rule:evenodd" id="path20-1" d="m 57.373714,1029.6733 c 2.64251,-2e-4 5.0469,2.4044 5.0469,5.0473 0,1.9821 -1.28441,3.9046 -3.11532,4.6631 -1.8309,0.7585 -4.09826,0.3073 -5.49963,-1.0942 -1.40138,-1.4015 -1.85257,-3.6691 -1.09427,-5.5003 0.75829,-1.8312 2.68051,-3.1159 4.66232,-3.1159 z"/><path style="fill:#2c89a0;fill-rule:evenodd" id="path22-0" d="m 43.932304,1031.3952 c 1.751,-10e-5 3.34424,1.5933 3.34424,3.3445 0,1.3133 -0.85106,2.5872 -2.06424,3.0898 -1.21318,0.5026 -2.71557,0.2037 -3.64415,-0.725 -0.92858,-0.9286 -1.22757,-2.4312 -0.72513,-3.6445 0.50243,-1.2134 1.77611,-2.0647 3.08928,-2.0648 z"/><path style="fill:#2c89a0;fill-rule:evenodd" id="path24-9" d="m 57.352154,1031.3999 c 1.74974,0 3.34177,1.5923 3.34177,3.3423 0,1.3124 -0.85052,2.5855 -2.0629,3.0877 -1.21239,0.5023 -2.71379,0.2035 -3.64173,-0.7245 -0.92794,-0.9281 -1.22668,-2.4297 -0.72451,-3.6423 0.50217,-1.2125 1.77506,-2.0632 3.08737,-2.0632 z"/><path style="fill:#a26952;fill-opacity:1;fill-rule:evenodd" id="path26-9" d="m 44.812344,1043.3242 11.78904,0 c 0,0 -4.49304,1.622 -6.17728,1.622 -1.68447,0 -5.61176,-1.622 -5.61176,-1.622 z"/><path style="fill:#a16133;fill-opacity:1;fill-rule:evenodd" id="path28-6" d="m 42.788294,1031.0305 c 6.20134,-1.4191 9.00729,-6.4862 16.36277,-5.3372 -1.68448,-1.6845 -10.38998,-5.897 -12.07423,-2.5283 -2.59868,1.2929 -4.06326,4.3006 -4.28854,7.8655 z"/><path style="fill:#d38d5f;stroke:none" id="path2998" d="m 14.744388,7.4520879 c 2.539976,-1.4798543 6.381347,-1.9360412 9.372306,-1.4521262 0.258804,1.2467803 0.55974,2.329347 0.08785,3.8944493 0.38863,-0.174117 1.068553,-0.4684198 1.188625,-0.9105655 0.652996,0.4162842 0.867686,1.0649695 1.196797,2.5565445 C 27.098808,10.973111 26.987268,9.4562411 26.77064,8.7764804 25.886569,6.00235 23.519305,4.4721745 21.345786,3.6715345 16.856457,2.0178402 11.092738,1.8595735 7.4246204,6.5441557 8.1497136,6.2228075 10.294623,5.2701939 11.697364,5.0443208 10.235303,6.1464526 9.3314282,8.1143218 9.1634968,9.1737951 12.258892,6.2419915 15.611266,4.8228037 15.611266,4.8228037 15.045244,5.8026582 14.736805,6.4204566 14.744388,7.4520879 z" transform="translate(36,1018.3622)"/></g></g></svg>