<svg viewBox="0 0 32 32" xmlns="http://www.w3.org/2000/svg"><defs><linearGradient x1="7.5789" y1="13.4737" x2="7.4331" y2="20.8984" id="gradient8402" gradientUnits="userSpaceOnUse"><stop offset="0%" stop-color="rgb(20,30,36)"/><stop offset="100%" stop-color="rgb(225,160,121)"/></linearGradient><linearGradient x1="7.5789" y1="13.4737" x2="7.5495" y2="17.6962" id="gradient8403" gradientUnits="userSpaceOnUse"><stop offset="0%" stop-color="rgb(20,30,36)"/><stop offset="100%" stop-color="rgb(225,160,121)"/></linearGradient><linearGradient x1="24.4079" y1="13.476" x2="24.5537" y2="20.9008" id="gradient8404" gradientUnits="userSpaceOnUse"><stop offset="0%" stop-color="rgb(20,30,36)"/><stop offset="100%" stop-color="rgb(225,160,121)"/></linearGradient><linearGradient x1="24.4079" y1="13.476" x2="24.4373" y2="17.6985" id="gradient8405" gradientUnits="userSpaceOnUse"><stop offset="0%" stop-color="rgb(20,30,36)"/><stop offset="100%" stop-color="rgb(225,160,121)"/></linearGradient><linearGradient x1="7.5789" y1="13.6579" x2="7.4395" y2="20.7578" id="gradient8409" gradientUnits="userSpaceOnUse"><stop offset="0%" stop-color="rgb(20,30,36)"/><stop offset="100%" stop-color="rgb(139,188,199)"/></linearGradient><linearGradient x1="7.5789" y1="13.6579" x2="7.5508" y2="17.6956" id="gradient8410" gradientUnits="userSpaceOnUse"><stop offset="0%" stop-color="rgb(20,30,36)"/><stop offset="100%" stop-color="rgb(139,188,199)"/></linearGradient><linearGradient x1="24.4079" y1="13.6602" x2="24.5474" y2="20.7602" id="gradient8411" gradientUnits="userSpaceOnUse"><stop offset="0%" stop-color="rgb(20,30,36)"/><stop offset="100%" stop-color="rgb(139,188,199)"/></linearGradient><linearGradient x1="24.4079" y1="13.6602" x2="24.436" y2="17.698" id="gradient8412" gradientUnits="userSpaceOnUse"><stop offset="0%" stop-color="rgb(20,30,36)"/><stop offset="100%" stop-color="rgb(139,188,199)"/></linearGradient></defs><g><path d="M3.3684,26.9474 C6.4215,26.3498 9.2961,25.2549 11.7895,23.5789 C13.7722,22.2463 15.5027,20.5598 16.8421,18.5263 C17.6715,20.4056 18.8287,22.0877 20.2105,23.5789 C22.0993,25.6172 24.4134,27.2825 26.9474,28.6316 C27.4781,25.6776 27.6141,22.6771 26.9474,20.2105 C26.6067,18.95 26.0808,17.82 25.2632,16.8421 C25.8179,16.7106 26.375,16.7263 26.9474,16.8421 C28.0674,17.0687 29.2404,17.7232 30.3158,18.5263 C29.9257,16.7807 29.3536,15.0976 28.6316,13.4737 C27.4151,10.7378 25.8791,8.2067 23.5789,6.7368 C21.2275,5.2342 18.2143,4.8773 15.1579,5.0526 C12.7823,5.1889 10.4557,5.6183 8.4211,6.7368 C5.3928,8.4015 3.1277,11.4855 1.6842,15.1579 L5.0526,13.4737 C4.2132,15.0611 3.6799,16.762 3.3684,18.5263 C2.8901,21.236 2.9644,24.1007 3.3684,26.9474 Z" fill="rgb(163,138,98)" opacity="1"/><path d="M28.6316,16.8421 C29.7889,23.0397 23.9512,30.3024 16,30.3158 C7.9822,30.3293 2.2704,23.1481 3.3684,16.8421 C5.6444,3.7709 26.4143,3.705 28.6316,16.8421 Z" fill="rgb(177,106,78)" opacity="1"/><path d="M26.9474,16.8421 C26.9756,24.2981 22.0463,30.3146 16,30.3158 C9.9442,30.317 5.0526,24.2947 5.0526,16.8421 C5.0526,9.3895 9.9442,3.3672 16,3.3684 C22.0463,3.3697 26.9756,9.3861 26.9474,16.8421 Z" fill="rgb(225,160,121)" opacity="1"/><path d="M20.2105,6.7368 C17.8957,7.7276 15.6396,8.8412 13.4737,10.1053 C11.7245,11.1261 10.0338,12.2433 8.4211,13.4737 C8.6634,11.6691 9.2278,9.9635 10.1053,8.4211 C10.95,6.9361 12.0324,5.6253 13.4737,5.0526 C15.5466,4.2289 18.0919,4.9058 20.2105,6.7368 Z" fill="rgb(177,106,78)" opacity="1"/><path d="M11.7895,25.2632 L20.2105,25.2632 C18.9983,26.3533 17.5404,26.9474 16,26.9474 C14.4596,26.9474 13.0017,26.3533 11.7895,25.2632 Z" fill="rgb(177,106,78)" opacity="1"/><path d="M28.6316,16.8421 C26.6486,16.1578 24.9404,14.9847 23.5789,13.4737 C21.9083,11.6195 20.7984,9.295 20.2105,6.7368 C17.1659,7.2959 14.3213,8.4421 11.7895,10.1053 C9.1324,11.8507 6.863,14.1366 5.0526,16.8421 L5.0526,13.4737 L1.6842,15.1579 C1.7903,11.9326 3.0329,9.0321 5.0526,6.7368 C7.8409,3.5681 11.8054,1.7472 15.9912,1.6842 C20.337,1.6188 24.4548,3.4038 26.9474,6.7368 C29.048,9.5458 29.7692,13.196 28.6316,16.8421 Z" fill="rgb(163,138,98)" opacity="1"/><path d="M0,0 L32,0 L32,32 L0,32 L0,0 Z" fill="transparent" opacity="1"/></g><g><path d="M11.7895,15.6303 C13.0177,14.5867 14.4724,14.0218 15.9996,14.0217 C17.527,14.0216 18.982,14.5867 20.2105,15.6303 L20.2105,19.3684 C18.9702,18.3599 17.5176,17.8166 15.9996,17.8166 C14.4818,17.8167 13.0295,18.36 11.7895,19.3684 L11.7895,15.6303 Z" fill="rgb(139,188,199)" opacity="0.25"/><path d="M11.7895,16.1677 C13.0177,15.1241 14.4724,14.5591 15.9996,14.559 C17.527,14.559 18.982,15.124 20.2105,16.1677 L20.2105,18.8974 C18.9702,17.8889 17.5176,17.3455 15.9996,17.3456 C14.4818,17.3457 13.0295,17.889 11.7895,18.8974 L11.7895,16.1677 Z" fill="rgb(139,188,199)" opacity="0.25"/><path d="M0,17.6842 C-0.0061,13.4901 3.3754,10.1007 7.579,10.1053 C11.7718,10.1099 15.1579,13.4921 15.1579,17.6842 C15.1579,21.8763 11.7718,25.2586 7.579,25.2632 C3.3754,25.2678 -0.0061,21.8783 0,17.6842 Z" fill="rgb(139,188,199)" opacity="0.25"/><path d="M0.8106,17.6713 C0.8052,13.9329 3.8193,10.9118 7.5661,10.9159 C11.3033,10.92 14.3215,13.9347 14.3215,17.6713 C14.3215,21.408 11.3033,24.4227 7.5661,24.4268 C3.8193,24.4309 0.8052,21.4098 0.8106,17.6713 Z" fill="rgb(139,188,199)" opacity="0.25"/><path d="M16.8421,17.6842 C16.836,13.4901 20.2175,10.1007 24.4211,10.1053 C28.6139,10.1099 32,13.4921 32,17.6842 C32,21.8763 28.6139,25.2586 24.4211,25.2632 C20.2175,25.2678 16.836,21.8783 16.8421,17.6842 Z" fill="rgb(139,188,199)" opacity="0.25"/><path d="M17.6529,17.6884 C17.6474,13.9406 20.6691,10.9119 24.4253,10.9161 C28.1718,10.9202 31.1976,13.9425 31.1976,17.6884 C31.1976,21.4344 28.1718,24.4567 24.4253,24.4608 C20.6691,24.4649 17.6474,21.4362 17.6529,17.6884 Z" fill="rgb(139,188,199)" opacity="0.25"/></g><g><path d="M3.3684,17.6842 C3.365,15.3541 5.2436,13.4711 7.5789,13.4737 C9.9083,13.4762 11.7895,15.3553 11.7895,17.6842 C11.7895,20.0132 9.9083,21.8922 7.5789,21.8947 C5.2436,21.8973 3.365,20.0143 3.3684,17.6842 Z" fill="url(#gradient8402)" opacity="1"/><path d="M11.7895,17.6842 C11.7689,18.8663 11.3058,19.9267 10.5205,20.6986 C9.7316,21.4741 8.6704,21.9135 7.5789,21.8947 C6.2141,21.8713 4.933,21.1275 3.9665,19.9122 C4.5203,17.711 5.8388,16.1239 7.7575,15.8009 C9.3434,15.5339 10.8079,16.2352 11.7895,17.6842 Z" fill="url(#gradient8403)" opacity="1"/><path d="M28.6184,17.6865 C28.6218,15.3565 26.7432,13.4735 24.4079,13.476 C22.0785,13.4786 20.1973,15.3576 20.1973,17.6865 C20.1973,20.0155 22.0785,21.8945 24.4079,21.8971 C26.7432,21.8996 28.6218,20.0166 28.6184,17.6865 Z" fill="url(#gradient8404)" opacity="1"/><path d="M20.1973,17.6865 C20.2179,18.8686 20.681,19.929 21.4663,20.7009 C22.2552,21.4764 23.3164,21.9158 24.4079,21.8971 C25.7727,21.8736 27.0538,21.1298 28.0203,19.9145 C27.5995,17.8066 26.3959,16.2603 24.5306,15.8547 C22.8604,15.4915 21.2982,16.1926 20.1973,17.6865 Z" fill="url(#gradient8405)" opacity="1"/><path d="M11.7895,16.6748 C12.9924,15.6357 14.4272,15.0732 15.9325,15.0625 C17.4781,15.0514 18.9566,15.6216 20.2105,16.6748 L20.2105,18.6375 C19.0071,17.4884 17.5358,16.8573 15.9714,16.8624 C14.4238,16.8674 12.971,17.4951 11.7895,18.6375 L11.7895,16.6748 Z" fill="rgb(255,255,255)" opacity="1"/><path d="M1.6842,17.6842 C1.6795,14.4221 4.3095,11.7859 7.579,11.7895 C10.84,11.7931 13.4737,14.4237 13.4737,17.6842 C13.4737,20.9447 10.84,23.5754 7.579,23.5789 C4.3095,23.5825 1.6795,20.9463 1.6842,17.6842 Z" fill="rgb(255,255,255)" opacity="1"/><path d="M18.5263,17.6842 C18.5216,14.4221 21.1516,11.7859 24.4211,11.7895 C27.6821,11.7931 30.3158,14.4237 30.3158,17.6842 C30.3158,20.9447 27.6821,23.5754 24.4211,23.5789 C21.1516,23.5825 18.5216,20.9463 18.5263,17.6842 Z" fill="rgb(255,255,255)" opacity="1"/><path d="M3.5526,17.6842 C3.5494,15.4561 5.3458,13.6554 7.5789,13.6579 C9.8064,13.6603 11.6053,15.4572 11.6053,17.6842 C11.6053,19.9113 9.8064,21.7081 7.5789,21.7106 C5.3458,21.713 3.5494,19.9124 3.5526,17.6842 Z" fill="url(#gradient8409)" opacity="1"/><path d="M11.6053,17.6842 C11.5856,18.8146 11.1428,19.8286 10.3918,20.5667 C9.6374,21.3083 8.6227,21.7285 7.5789,21.7106 C6.2738,21.6882 5.0488,20.9769 4.1246,19.8147 C4.6541,17.7098 5.915,16.1922 7.7497,15.8833 C9.2662,15.628 10.6667,16.2986 11.6053,17.6842 Z" fill="url(#gradient8410)" opacity="1"/><path d="M28.4342,17.6866 C28.4375,15.4584 26.641,13.6578 24.4079,13.6602 C22.1804,13.6627 20.3816,15.4595 20.3816,17.6866 C20.3816,19.9136 22.1804,21.7104 24.4079,21.7129 C26.641,21.7153 28.4375,19.9147 28.4342,17.6866 Z" fill="url(#gradient8411)" opacity="1"/><path d="M20.3816,17.6866 C20.4012,18.8169 20.8441,19.8309 21.595,20.5691 C22.3494,21.3106 23.3641,21.7308 24.4079,21.7129 C25.713,21.6905 26.9381,20.9792 27.8623,19.8171 C27.4599,17.8014 26.309,16.3227 24.5252,15.9348 C22.9281,15.5875 21.4342,16.258 20.3816,17.6866 Z" fill="url(#gradient8412)" opacity="1"/></g><g><path d="M8.4211,15.1579 C9.3531,15.1565 10.1063,15.908 10.1053,16.8421 C10.1042,17.7738 9.3526,18.5263 8.4211,18.5263 C7.4895,18.5263 6.7379,17.7738 6.7368,16.8421 C6.7358,15.908 7.489,15.1565 8.4211,15.1579 Z" fill="rgb(20,30,36)" opacity="0.1"/><path d="M23.5789,15.1579 C24.511,15.1565 25.2642,15.908 25.2632,16.8421 C25.2621,17.7738 24.5105,18.5263 23.5789,18.5263 C22.6474,18.5263 21.8958,17.7738 21.8947,16.8421 C21.8937,15.908 22.6469,15.1565 23.5789,15.1579 Z" fill="rgb(20,30,36)" opacity="0.1"/></g></svg>