<svg version="1.1" viewBox="0.0 0.0 181.997375328084 142.71916010498688" fill="none" stroke="none" stroke-linecap="square" stroke-miterlimit="10" xmlns:xlink="http://www.w3.org/1999/xlink" xmlns="http://www.w3.org/2000/svg"><clipPath id="p.0"><path d="m0 0l181.99738 0l0 142.71916l-181.99738 0l0 -142.71916z" clip-rule="nonzero"/></clipPath><g clip-path="url(#p.0)"><path fill="#000000" fill-opacity="0.0" d="m0 0l181.99738 0l0 142.71916l-181.99738 0z" fill-rule="evenodd"/><path fill="#ff00ff" d="m41.707348 71.35958l0 0c0 -26.022614 22.068485 -47.11811 49.29134 -47.11811l0 0c13.072876 0 25.610321 4.9642143 34.85424 13.800575c9.243919 8.836357 14.437096 20.821033 14.437096 33.317535l0 0c0 26.022614 -22.068481 47.11811 -49.291336 47.11811l0 0c-27.222855 0 -49.29134 -21.095497 -49.29134 -47.11811z" fill-rule="evenodd"/><path stroke="#000000" stroke-width="1.0" stroke-linejoin="round" stroke-linecap="butt" d="m41.707348 71.35958l0 0c0 -26.022614 22.068485 -47.11811 49.29134 -47.11811l0 0c13.072876 0 25.610321 4.9642143 34.85424 13.800575c9.243919 8.836357 14.437096 20.821033 14.437096 33.317535l0 0c0 26.022614 -22.068481 47.11811 -49.291336 47.11811l0 0c-27.222855 0 -49.29134 -21.095497 -49.29134 -47.11811z" fill-rule="evenodd"/></g></svg>