<?xml version="1.0" encoding="UTF-8" standalone="no"?>
<svg
   xmlns:dc="http://purl.org/dc/elements/1.1/"
   xmlns:cc="http://creativecommons.org/ns#"
   xmlns:rdf="http://www.w3.org/1999/02/22-rdf-syntax-ns#"
   xmlns:svg="http://www.w3.org/2000/svg"
   xmlns="http://www.w3.org/2000/svg"
   xmlns:sodipodi="http://sodipodi.sourceforge.net/DTD/sodipodi-0.dtd"
   xmlns:inkscape="http://www.inkscape.org/namespaces/inkscape"
   width="1024"
   height="128"
   version="1.1"
   id="svg3025"
   inkscape:version="0.48.5 r10040"
   sodipodi:docname="dark-reader-type_edit.svg">
  <metadata
     id="metadata3033">
    <rdf:RDF>
      <cc:Work
         rdf:about="">
        <dc:format>image/svg+xml</dc:format>
        <dc:type
           rdf:resource="http://purl.org/dc/dcmitype/StillImage" />
        <dc:title></dc:title>
      </cc:Work>
    </rdf:RDF>
  </metadata>
  <defs
     id="defs3031" />
  <sodipodi:namedview
     pagecolor="#ffffff"
     bordercolor="#666666"
     borderopacity="1"
     objecttolerance="10"
     gridtolerance="10"
     guidetolerance="10"
     inkscape:pageopacity="0"
     inkscape:pageshadow="2"
     inkscape:window-width="1600"
     inkscape:window-height="837"
     id="namedview3029"
     showgrid="false"
     showguides="true"
     inkscape:guide-bbox="true"
     inkscape:object-paths="false"
     inkscape:snap-intersection-paths="true"
     inkscape:snap-smooth-nodes="true"
     inkscape:object-nodes="true"
     inkscape:zoom="0.33477087"
     inkscape:cx="-655.91503"
     inkscape:cy="461.48864"
     inkscape:window-x="-8"
     inkscape:window-y="-8"
     inkscape:window-maximized="1"
     inkscape:current-layer="layer1" />
  <g
     id="layer1">
    <path
       style="fill:#eeaa22;fill-opacity:1;fill-rule:evenodd"
       d="m -2.5e-5,0 3.99427,10 0,118 30.14426,0 c 37.3003,0 60.75661,-26 60.75661,-65 0,-42 -18.30215,-63 -57.29282,-63 L -2.5e-5,0 z M 125.91313,0 128.19111,7.71875 94.770295,128 l 27.741465,0 2.9645,-12.6875 43.4689,0 L 172.1593,128 199.33905,128 166.63597,0 125.91313,0 z m 82.25702,0 3.96305,10 0,118 23.46634,0 0,-43.65625 c 11.65828,0 18.87025,4.85018 22.65501,13.25 L 273.01463,128 299.16462,128 282.03295,91.15625 C 278.3763,84.82572 274.59807,78.34118 267.89697,76.625 283.18524,70.27194 292.51791,59.36502 292.51791,38.15625 292.51791,11.14337 269.19362,0 247.92562,0 l -39.75547,0 z m 98.17169,0 3.96305,10 0,118 25.05781,0 0,-56.9375 c 6.9773,0 14.26844,2.18919 19.78413,14.40625 L 376.11675,128 l 26.08759,0 -25.86915,-53.9375 c -3.05232,-6.36184 -5.53406,-10.64372 -10.60978,-13.5 4.3933,-3.51702 8.71046,-9.39098 11.32749,-14.6875 L 398.14765,0 l -29.33292,0 0,5 -14.13598,31.625 c -3.59664,8.03772 -11.67781,16.34375 -19.31605,16.34375 L 335.3627,0 306.34184,0 z m 135.96122,0 3.96307,10 0,118 23.49755,0 0,-43.65625 c 11.65828,0 18.83903,4.85018 22.6238,13.25 L 507.14755,128 l 26.15,0 -17.13167,-36.84375 C 512.50922,84.82572 508.7622,78.34118 502.0611,76.625 517.34937,70.27194 526.68205,59.36502 526.68205,38.15625 526.68205,11.14337 503.35775,0 482.08975,0 l -39.78669,0 z m 101.1674,0 4.1503,10 0,118 69.86853,0 0,-21.28125 -45.90291,0 0,-35.625 41.75261,0 0,-19.1875 -41.75261,0 0,-31.40625 43.40649,0 0,-20.5 -71.52241,0 z m 116.02108,0 2.278,7.71875 L 628.37992,128 l 27.71025,0 2.9645,-12.6875 43.4689,0 3.24535,12.6875 27.17977,0 -32.7031,-128 -40.75405,0 z m 81.75774,0 3.99428,10 0,118 30.14426,0 c 37.3003,0 60.75661,-26 60.75661,-65 0,-42 -18.33336,-63 -57.32403,-63 l -37.57111,0 z m 103.97586,0 4.15031,10 0,118 69.86858,0 0,-21.28125 -45.903,0 0,-35.625 41.7528,0 0,-19.1875 -41.7528,0 0,-31.40625 43.4066,0 0,-20.5 -71.52248,0 z m 87.78038,0 3.9631,10 0,118 23.4663,0 0,-43.65625 c 11.6583,0 18.8703,4.85018 22.655,13.25 L 997.81882,128 1024,128 1006.8683,91.15625 C 1003.2117,84.82572 999.43343,78.34118 992.73243,76.625 1008.0206,70.27194 1017.3533,59.36502 1017.3533,38.15625 1017.3533,11.14337 994.02892,0 972.76102,0 l -39.7555,0 z m -786.30971,18.03125 0.78013,0 17.22529,76.59375 -34.45058,0 16.44516,-76.59375 z m 533.57842,0 0.78014,0 17.22529,76.59375 -34.45059,0 16.44516,-76.59375 z m -444.67469,1.6875 10.14171,0 c 11.65639,0 22.32687,7.93447 22.28054,20.78125 -0.0679,18.73372 -13.93017,25.90625 -32.42225,25.90625 l 0,-46.6875 z m 234.16414,0 10.1105,0 c 11.65638,0 22.35808,7.93447 22.31174,20.78125 -0.0679,18.73372 -13.93016,25.90625 -32.42224,25.90625 l 0,-46.6875 z m 490.67125,0 10.1105,0 c 11.6564,0 22.3581,7.93447 22.3118,20.78125 -0.068,18.73372 -13.9302,25.90625 -32.4223,25.90625 l 0,-46.6875 z m -931.258055,0.625 9.82965,0 c 24.17972,0 30.73716,23.65625 30.73716,42.65625 0,19 -12.19965,43.65625 -34.16973,43.65625 l -6.39708,0 0,-86.3125 z m 741.249315,0 9.79844,0 C 804.40435,20.34375 810.993,44 810.993,63 c 0,19 -12.19965,43.65625 -34.16974,43.65625 l -6.39707,0 0,-86.3125 z"
       id="path3086-5"
       inkscape:connector-curvature="0" />
  </g>
</svg>
