<?xml version="1.0" encoding="UTF-8" standalone="no"?>
<svg
   xmlns:dc="http://purl.org/dc/elements/1.1/"
   xmlns:cc="http://creativecommons.org/ns#"
   xmlns:rdf="http://www.w3.org/1999/02/22-rdf-syntax-ns#"
   xmlns:svg="http://www.w3.org/2000/svg"
   xmlns="http://www.w3.org/2000/svg"
   viewBox="0 0 14.25 14.25"
   id="svg2"
   height="14.25"
   width="14.25"
   version="1.1">
  <metadata
     id="metadata38">
    <rdf:RDF>
      <cc:Work
         rdf:about="">
        <dc:format>image/svg+xml</dc:format>
        <dc:type
           rdf:resource="http://purl.org/dc/dcmitype/StillImage" />
      </cc:Work>
    </rdf:RDF>
  </metadata>
  <defs
     id="defs36" />
  <path
     id="path4"
     style="fill:none"
     d="m 0.38,0.3752 0,14.2497 14.2444,0 0,-14.2497 -14.2444,0 z" />
  <path
     id="path6"
     style="fill:#001111;fill-rule:evenodd"
     d="m 7.8751,1.1249 c 2.9999,0 4.5,2.9999 4.5,5.9998 0,1.5001 1.4992,4.5 2.2493,6.7502 l -14.2495,0 C 1.1249,11.6247 2.625,8.6203 2.625,7.1202 2.625,4.1203 4.1251,1.1249 7.8751,1.1249 Z" />
  <path
     id="path8"
     style="fill:#557777;fill-rule:evenodd"
     d="m 7.8751,1.1249 c -2.9999,0 -5.2501,2.2502 -3.75,6.0001 0,1.5001 -2.2501,4.4997 -3.0002,6.7499 l -0.75,0 C 1.1249,11.6247 2.625,8.6203 2.625,7.1202 2.625,4.1203 4.1251,1.1249 7.8751,1.1249 Z" />
  <path
     id="path10"
     style="fill:#446666;fill-rule:evenodd"
     d="m 7.8751,1.1249 c -2.2499,0 -4.5,3.0002 -2.2502,6.7502 l 4.5,0 c 2.2502,-3.75 0,-6.7502 -2.2498,-6.7502 z" />
  <path
     id="path12"
     style="fill:#ccdddd;fill-rule:evenodd"
     d="m 4.8752,12.4029 c 0,-0.7501 0.7497,-0.7501 0.7497,0 l 0,0.7219 c 0,0.7781 -0.7497,0.7781 -0.7497,0.0281 l 0,-0.75 z" />
  <path
     id="path14"
     style="fill:#ccdddd;fill-rule:evenodd"
     d="m 6.3755,11.6528 c 0,-0.7359 0.7498,-0.7356 0.7498,0 l 0,1.472 c 0,0.7773 -0.7498,0.7781 -0.7498,0.0281 l 0,-1.5001 z" />
  <path
     id="path16"
     style="fill:#ccdddd;fill-rule:evenodd"
     d="m 9.3749,12.4029 c 0,-0.7501 0.7497,-0.7501 0.7497,0 l 0,0.7219 c 0,0.7781 -0.7497,0.7781 -0.7497,0.0281 l 0,-0.75 z" />
  <path
     id="path18"
     style="fill:#770022;fill-rule:evenodd"
     d="M 4.8813,4.8749 A 2.9973,2.9976 0 0 1 7.8786,7.8725 2.9973,2.9976 0 1 1 4.8813,4.8749 Z" />
  <path
     id="path20"
     style="fill:#770022;fill-rule:evenodd"
     d="M 10.8753,4.8749 A 2.9973,2.9976 0 0 1 13.8725,7.8725 2.9973,2.9976 0 1 1 10.8753,4.8749 Z" />
  <path
     id="path22"
     style="fill:#ffffff;fill-rule:evenodd"
     d="m 6.379,8.6203 c 1.001,-0.75 2.0022,-0.75 3.0035,0 l 0,-0.75 c 0,-0.7501 -3.0038,-0.7501 -3.0038,0 l 3e-4,0.75 z" />
  <path
     id="path24"
     style="fill:#ffffff;fill-rule:evenodd"
     d="M 4.8812,5.6248 A 2.2474,2.2477 0 0 1 7.1285,7.8725 2.2474,2.2477 0 1 1 4.8812,5.6248 Z" />
  <path
     id="path26"
     style="fill:#ffffff;fill-rule:evenodd"
     d="M 10.8751,5.6249 A 2.2473,2.2476 0 0 1 13.1225,7.8725 2.2473,2.2476 0 1 1 10.8751,5.6249 Z" />
  <path
     id="path28"
     style="fill:#dd1122;fill-rule:evenodd"
     d="M 4.8896,6.3917 A 1.4891,1.4893 0 0 1 6.3788,7.881 1.4891,1.4893 0 1 1 4.8896,6.3917 Z" />
  <path
     id="path30"
     style="fill:#dd1122;fill-rule:evenodd"
     d="M 10.8655,6.3938 A 1.4881,1.4883 0 0 1 12.3536,7.8821 1.4881,1.4883 0 1 1 10.8655,6.3938 Z" />
  <path
     id="path32"
     style="fill:#ccdddd;fill-rule:evenodd"
     d="m 7.8751,11.6528 c 0,-0.7359 0.7497,-0.7356 0.7497,0 l 0,1.472 c 0,0.7773 -0.7497,0.7781 -0.7497,0.0281 l 0,-1.5001 z" />
</svg>
