<?xml version="1.0" encoding="UTF-8" standalone="no"?>
<svg
   xmlns:dc="http://purl.org/dc/elements/1.1/"
   xmlns:cc="http://creativecommons.org/ns#"
   xmlns:rdf="http://www.w3.org/1999/02/22-rdf-syntax-ns#"
   xmlns:svg="http://www.w3.org/2000/svg"
   xmlns="http://www.w3.org/2000/svg"
   viewBox="0 0 14.25 14.25"
   id="svg2"
   height="14.25"
   width="14.25"
   version="1.1">
  <metadata
     id="metadata34">
    <rdf:RDF>
      <cc:Work
         rdf:about="">
        <dc:format>image/svg+xml</dc:format>
        <dc:type
           rdf:resource="http://purl.org/dc/dcmitype/StillImage" />
      </cc:Work>
    </rdf:RDF>
  </metadata>
  <defs
     id="defs32" />
  <path
     id="path4"
     style="fill:none"
     d="m 0.38,0.3752 0,14.2497 14.2444,0 0,-14.2497 -14.2444,0 z" />
  <path
     id="path6"
     style="fill:#996611;fill-rule:evenodd"
     d="m 1.1249,12.3751 c 2.2502,-2.2502 2.2502,-8.25 6.7502,-8.25 4.5,0 3.7499,5.2498 5.25,8.25 -2.2501,0 -4.5,0 -5.25,-2.2502 -1.5001,1.5001 -2.9999,2.2502 -6.7502,2.2502 z" />
  <path
     id="path8"
     style="fill:#eeaa77;fill-rule:evenodd"
     d="m 7.8751,13.8749 c 2.9999,0 4.5,-4.5003 4.5,-6.7502 0,-2.2498 -0.7501,-5.2497 -4.5,-5.2497 -3.75,0 -5.2413,2.2427 -5.2413,5.9975 0,3.7548 2.2414,6.0024 5.2413,6.0024 z" />
  <path
     id="path10"
     style="fill:#996611;fill-rule:evenodd"
     d="m 10.875,3.3751 c -2.9999,0 -4.5,2.2498 -6.7499,2.9999 C 3.4006,7.881 2.6247,10.1249 1.1249,10.1249 1.875,8.6251 1.875,4.8752 2.625,3.3751 3.3751,1.875 5.6249,1.1249 7.8751,1.1249 c 2.2501,0 4.5,0.7501 5.25,3.7503 0.7501,3.0002 -0.75,3.7499 0.7498,5.2497 C 11.625,9.3749 11.6154,7.8822 10.875,3.3751 Z" />
  <path
     id="path12"
     style="fill:#005599;fill-rule:evenodd"
     d="M 4.8813,4.8749 A 2.9973,2.9976 0 0 1 7.8786,7.8725 2.9973,2.9976 0 1 1 4.8813,4.8749 Z" />
  <path
     id="path14"
     style="fill:#005599;fill-rule:evenodd"
     d="M 10.8753,4.8749 A 2.9973,2.9976 0 0 1 13.8725,7.8725 2.9973,2.9976 0 1 1 10.8753,4.8749 Z" />
  <path
     id="path16"
     style="fill:#ffffff;fill-rule:evenodd"
     d="m 6.379,8.6203 c 1.001,-0.75 2.0022,-0.75 3.0035,0 l 0,-0.75 c 0,-0.7501 -3.0038,-0.7501 -3.0038,0 l 3e-4,0.75 z" />
  <path
     id="path18"
     style="fill:#ffffff;fill-rule:evenodd"
     d="M 4.8812,5.6248 A 2.2474,2.2477 0 0 1 7.1285,7.8725 2.2474,2.2477 0 1 1 4.8812,5.6248 Z" />
  <path
     id="path20"
     style="fill:#ffffff;fill-rule:evenodd"
     d="M 10.8751,5.6249 A 2.2473,2.2476 0 0 1 13.1225,7.8725 2.2473,2.2476 0 1 1 10.8751,5.6249 Z" />
  <path
     id="path22"
     style="fill:#1188ee;fill-rule:evenodd"
     d="M 4.8896,6.3917 A 1.4891,1.4893 0 0 1 6.3788,7.881 1.4891,1.4893 0 1 1 4.8896,6.3917 Z" />
  <path
     id="path24"
     style="fill:#1188ee;fill-rule:evenodd"
     d="M 10.8655,6.3938 A 1.4881,1.4883 0 0 1 12.3536,7.8821 1.4881,1.4883 0 1 1 10.8655,6.3938 Z" />
  <path
     id="path26"
     style="fill:#996655;fill-rule:evenodd"
     d="m 4.8752,11.625 5.2497,0 c 0,0 -1.4998,0.7501 -2.2498,0.7501 -0.7501,0 -2.9999,-0.7501 -2.9999,-0.7501 z" />
  <path
     id="path28"
     style="fill:#996611;fill-rule:evenodd"
     d="M 4.8752,7.125 C 7.125,6.375 7.8751,3.3751 10.875,3.3751 10.1249,2.625 7.125,1.1249 6.375,2.625 c -0.7501,1.5001 0,2.2502 -1.4998,4.5 z" />
</svg>
