<?xml version="1.0" encoding="UTF-8"?>
<!DOCTYPE svg PUBLIC "-//W3C//DTD SVG 1.1//EN" "http://www.w3.org/Graphics/SVG/1.1/DTD/svg11.dtd">
<!-- Creator: CorelDRAW X7 -->
<svg xmlns="http://www.w3.org/2000/svg" xml:space="preserve" width="440px" height="280px" version="1.1" style="shape-rendering:geometricPrecision; text-rendering:geometricPrecision; image-rendering:optimizeQuality; fill-rule:evenodd; clip-rule:evenodd"
viewBox="0 0 440 280"
 xmlns:xlink="http://www.w3.org/1999/xlink">
 <defs>
  <style type="text/css">
   <![CDATA[
    .str0 {stroke:black;stroke-width:0.666709}
    .str1 {stroke:black;stroke-width:0.288}
    .fil0 {fill:none}
    .fil1 {fill:#001111}
    .fil16 {fill:#05273D}
    .fil23 {fill:#0B1A1F}
    .fil24 {fill:#0C2629}
    .fil12 {fill:#0C2638}
    .fil13 {fill:#0E4561}
    .fil26 {fill:#13393D}
    .fil18 {fill:#3D292E}
    .fil3 {fill:#446666}
    .fil27 {fill:#47B8B4}
    .fil9 {fill:#4D4D4D}
    .fil2 {fill:#557777}
    .fil10 {fill:#666666}
    .fil17 {fill:#6692A1}
    .fil20 {fill:#751E37}
    .fil5 {fill:#770022}
    .fil11 {fill:gray}
    .fil19 {fill:#915761}
    .fil4 {fill:#CCDDDD}
    .fil22 {fill:#D96F64}
    .fil7 {fill:#DD1122}
    .fil21 {fill:#DD1130}
    .fil6 {fill:white}
    .fil8 {fill:#4D4D4D;fill-rule:nonzero}
    .fil25 {fill:#E3B339;fill-rule:nonzero}
    .fil15 {fill:#E88F58;fill-rule:nonzero}
    .fil14 {fill:#EB6844;fill-rule:nonzero}
   ]]>
  </style>
   <clipPath id="id0">
    <path d="M0 0l440 0 0 280 -440 0 0 -280z"/>
   </clipPath>
   <clipPath id="id1">
    <path d="M0 0l440 0 0 280 -440 0 0 -280zm220 0m220 140m-220 140m-220 -140"/>
   </clipPath>
   <clipPath id="id2">
    <path d="M867 0l440 0 0 280 -440 0 0 -280z"/>
   </clipPath>
 </defs>
 <g id="Layer_x0020_1">
  <metadata id="CorelCorpID_0Corel-Layer"/>
  <rect class="fil0" x="-303" y="11" width="128" height="128"/>
  <path class="fil1" d="M-236 24c24,0 36,24 36,48 0,12 12,36 18,54l-8 0 -17 -3 -6 3 -52 0 -6 -3 -17 3 -8 0c6,-18 18,-42 18,-54 0,-24 12,-48 42,-48z"/>
  <path class="fil2" d="M-236 24c-24,0 -42,18 -30,48 0,12 -18,36 -24,54l-6 0c6,-18 18,-42 18,-54 0,-24 12,-48 42,-48z"/>
  <path class="fil3" d="M-236 24c-18,0 -36,24 -18,54l36 0c18,-30 0,-54 -18,-54z"/>
  <path class="fil4" d="M-260 114c0,-6 6,-6 6,0l0 6c0,6 -6,6 -6,0l0 -6z"/>
  <path class="fil4" d="M-248 108c0,-6 6,-6 6,0l0 12c0,6 -6,6 -6,0l0 -12z"/>
  <path class="fil4" d="M-224 114c0,-6 6,-6 6,0l0 6c0,6 -6,6 -6,0l0 -6z"/>
  <circle class="fil5" cx="-260" cy="78" r="24"/>
  <circle class="fil5" cx="-212" cy="78" r="24"/>
  <path class="fil6" d="M-248 84c8,-6 16,-6 24,0l0 -6c0,-6 -24,-6 -24,0l0 6z"/>
  <circle class="fil6" cx="-260" cy="78" r="18"/>
  <circle class="fil6" cx="-212" cy="78" r="18"/>
  <circle class="fil7" cx="-259" cy="78" r="12"/>
  <circle class="fil7" cx="-212" cy="78" r="12"/>
  <path class="fil4" d="M-236 108c0,-6 6,-6 6,0l0 12c0,6 -6,6 -6,0l0 -12z"/>
  <path class="fil8" d="M163 -97c0,7 -4,11 -11,11l-10 0 0 -22 9 0c8,0 12,4 12,11zm-7 0c0,-3 -2,-6 -5,-6l-2 0 0 12 2 0c3,0 5,-3 5,-6zm25 11l-4 -14c0,-1 -1,-2 -1,-3l0 0c0,1 0,2 -1,3l-3 14 -8 0 8 -22 9 0 7 22 -7 0zm21 0l-5 -7 0 0 0 7 -7 0 0 -22 9 0c5,0 10,1 10,6 0,4 -3,6 -5,7l0 0 0 0c1,2 5,8 6,9l-8 0zm-5 -9c2,-2 4,-4 4,-6 0,-2 -1,-2 -2,-2l-2 0 0 8 0 0zm28 9c-1,-1 -5,-8 -6,-9l0 0 0 9 -7 0 0 -22 7 0 0 11 0 0c1,-2 5,-10 5,-11l8 0 -6 10 -1 1 1 0 7 11 -8 0zm30 0l-2 -4c0,-2 -1,-3 -3,-3l0 0 0 7 -7 0 0 -22 9 0c4,0 9,1 9,6 0,4 -2,5 -5,6l0 0c2,1 3,3 4,5l2 5 -7 0zm-1 -15c0,-2 -1,-2 -3,-2l-1 0 0 5 1 0c2,0 3,-1 3,-3zm11 15l0 -22 14 0 0 5 -7 0 0 4 7 0 0 5 -7 0 0 3 8 0 0 5 -15 0zm32 0l-1 -4 -7 0 -1 4 -7 0 7 -22 9 0 7 22 -7 0zm-4 -17l-1 0c0,2 -1,6 -2,8l5 0c-1,-2 -2,-5 -2,-8zm35 6c0,2 -1,4 -2,6 -1,2 -2,3 -4,4 -1,1 -3,1 -6,1l-9 0 0 -22 9 0c8,0 12,4 12,11zm-7 0c0,-1 -1,-2 -1,-3 0,-1 -1,-1 -2,-2 -1,0 -2,-1 -3,-1l-2 0 0 12 2 0c2,0 3,0 4,-2 1,-1 2,-2 2,-4zm10 11l0 -22 14 0 0 5 -7 0 0 4 7 0 0 5 -7 0 0 3 7 0 0 5 -14 0zm29 0l-1 -4c-1,-1 -1,-2 -2,-3 0,0 -1,0 -1,0l-1 0 0 7 -6 0 0 -22 9 0c3,0 5,1 7,2 1,1 2,2 2,4 0,2 -1,3 -1,4 -1,1 -3,2 -4,2l0 0c1,1 1,1 2,2 1,0 1,1 2,3l2 5 -8 0zm0 -15c0,-1 -1,-1 -1,-2 0,0 -1,0 -2,0l-2 0 0 5 2 0c1,0 1,0 2,-1 0,0 1,-1 1,-2z"/>
  <rect class="fil9" x="172" y="-92" width="11.0003" height="4.8"/>
  <path class="fil8" d="M-73 -97c0,7 -4,11 -11,11l-10 0 0 -22 9 0c8,0 12,4 12,11zm-7 0c0,-3 -2,-6 -5,-6l-2 0 0 12 2 0c3,0 5,-3 5,-6zm25 11l-1 -4 -7 0 -1 4 -8 0 8 -22 9 0 7 22 -7 0zm-5 -17l0 0c0,1 0,2 -1,3 0,2 -1,4 -1,5l4 0c0,-1 -1,-3 -1,-5 0,-1 -1,-2 -1,-3zm26 17l-2 -4c0,-2 -1,-3 -3,-3l0 7 -7 0 0 -22 9 0c5,0 10,1 10,6 0,4 -2,5 -6,6l0 0c3,1 4,3 4,5l3 5 -8 0zm-1 -15c0,-2 -1,-2 -2,-2l-2 0 0 5 1 0c2,0 3,-1 3,-3zm24 15c-2,-2 -5,-8 -6,-11l0 0 0 11 -7 0 0 -22 7 0 0 11 0 0c1,-4 4,-8 5,-11l8 0 -6 11 7 11 -8 0zm30 0l-2 -4c0,-2 -1,-3 -3,-3l0 0 0 7 -7 0 0 -22 9 0c4,0 9,1 9,6 0,4 -2,5 -5,6l0 0c2,1 3,3 4,5l2 5 -7 0zm-1 -15c0,-2 -1,-2 -3,-2l-1 0 0 5 1 0c2,0 3,-1 3,-3zm11 15l0 -22 14 0 0 5 -7 0 0 4 7 0 0 5 -7 0 0 3 8 0 0 5 -15 0zm32 0l-1 -4 -7 0 -1 4 -7 0 7 -22 9 0 7 22 -7 0zm-4 -17l-1 0c0,2 -1,6 -2,8l5 0c-1,-2 -2,-5 -2,-8zm35 6c0,2 -1,4 -2,6 -1,2 -2,3 -4,4 -1,1 -3,1 -6,1l-9 0 0 -22 9 0c8,0 12,4 12,11zm-7 0c0,-1 -1,-2 -1,-3 0,-1 -1,-1 -2,-2 -1,0 -2,-1 -3,-1l-2 0 0 12 2 0c2,0 3,0 4,-2 1,-1 2,-2 2,-4zm10 11l0 -22 14 0 0 5 -7 0 0 4 7 0 0 5 -7 0 0 3 7 0 0 5 -14 0zm29 0l-1 -4c-1,-1 -1,-2 -2,-3 0,0 -1,0 -1,0l-1 0 0 7 -6 0 0 -22 9 0c3,0 5,1 7,2 1,1 2,2 2,4 0,2 -1,3 -1,4 -1,1 -3,2 -4,2l0 0c1,1 1,1 2,2 1,0 1,1 2,3l2 5 -8 0zm0 -15c0,-1 -1,-1 -1,-2 0,0 -1,0 -2,0l-2 0 0 5 2 0c1,0 1,0 2,-1 0,0 1,-1 1,-2z"/>
  <rect class="fil9 str0" x="-66" y="-95" width="11.0003" height="4.8"/>
  <polygon class="fil10" points="143,-104 142,-108 141,-108 "/>
  <polygon class="fil10" points="173,-104 172,-108 171,-108 "/>
  <polygon class="fil10" points="192,-104 190,-108 190,-108 "/>
  <polygon class="fil10" points="213,-104 212,-108 211,-108 "/>
  <polygon class="fil10" points="266,-104 265,-108 264,-108 "/>
  <polygon class="fil10" points="224,-105 224,-108 224,-108 "/>
  <polygon class="fil8" points="556,-86 556,-106 555,-108 570,-108 570,-103 563,-103 563,-99 570,-99 570,-94 563,-94 563,-91 571,-91 571,-86 "/>
  <path class="fil8" d="M515 -86c0,-1 -4,-8 -5,-9l0 0 0 9 -7 0 0 -20 -1 -2 8 0 0 11 0 0c1,-2 3,-8 5,-10l0 -1 8 0 -6 10 -1 1 1 0 7 11 -9 0z"/>
  <path class="fil8" d="M493 -86l-5 -7 0 0 0 7 -7 0 0 -20 -1 -2 10 0c4,0 9,1 9,6 0,4 -2,6 -4,7l-1 0 1 0c1,2 5,8 5,9l-7 0zm-5 -9c2,-2 4,-4 4,-6 0,-2 -1,-2 -3,-2l-1 0 0 8 0 0z"/>
  <path class="fil8" d="M456 -97c0,7 -5,11 -12,11l-10 0 0 -20 0 -2 10 0c8,0 12,4 12,11zm-8 0c0,-3 -2,-6 -5,-6l-2 0 0 12 2 0c4,0 5,-3 5,-6z"/>
  <path class="fil9" d="M463 -87l8 0 0 1 8 0 -8 -22 -9 0 1 1 -8 21 8 0 0 -1zm7 -5l-6 0 2 -8c0,-1 1,-2 1,-3l0 0c0,1 0,2 1,3l2 8z"/>
  <path class="fil8" d="M546 -86l-5 -7 0 0 0 7 -7 0 0 -20 -1 -2 10 0c4,0 9,1 9,6 0,4 -2,6 -4,7l-1 0 1 0c0,2 5,8 5,9l-7 0zm-5 -9c2,-2 4,-4 4,-6 0,-2 -1,-2 -3,-2l-1 0 0 8 0 0z"/>
  <path class="fil9" d="M580 -87l8 0 0 1 8 0 -8 -22 -9 0 1 1 -8 21 8 0 0 -1zm7 -5l-6 0 2 -8c1,-1 1,-2 1,-3l0 0c0,1 0,2 1,3l2 8z"/>
  <path class="fil8" d="M619 -97c0,7 -4,11 -11,11l-10 0 0 -20 -1 -2 11 0c8,0 11,4 11,11zm-7 0c0,-3 -2,-6 -5,-6l-2 0 0 12 2 0c4,0 5,-3 5,-6z"/>
  <polygon class="fil8" points="622,-86 622,-106 622,-108 637,-108 637,-103 629,-103 629,-99 636,-99 636,-94 629,-94 629,-91 637,-91 637,-86 "/>
  <path class="fil8" d="M653 -86l-5 -7 0 0 0 7 -7 0 0 -20 -1 -2 10 0c4,0 9,1 9,6 0,4 -2,6 -4,7l-1 0 1 0c1,2 5,8 5,9l-7 0zm-5 -9c2,-2 4,-4 4,-6 0,-2 -1,-2 -3,-2l-1 0 0 8 0 0z"/>
 </g>
 <g id="Text">
  <metadata id="CorelCorpID_1Corel-Layer"/>
  <polygon class="fil11" points="0,0 440,0 440,280 0,280 "/>
  <g style="clip-path:url(#id0)">
   <g id="_877508754016">
   </g>
  </g>
  <polygon id="1" class="fil0" points="0,0 440,0 440,280 0,280 "/>
  <g style="clip-path:url(#id1)">
   <path id="2" class="fil0 str1" d="M0 0l440 280m0 -280l-440 280"/>
  </g>
  <rect class="fil12" x="-2" y="-3" width="443" height="286"/>
  <path class="fil13" d="M98 155l343 -77 0 62c0,0 -342,15 -343,15z"/>
  <path class="fil13" d="M98 155l-100 -77 0 47c0,0 100,30 100,30z"/>
  <path class="fil13" d="M98 155l-100 3 0 34c0,0 100,-37 100,-37z"/>
  <path class="fil13" d="M98 155l343 26 0 38c0,0 -342,-64 -343,-64z"/>
  <path class="fil13" d="M98 155l299 -158 44 0 0 35c0,0 -342,123 -343,123z"/>
  <path class="fil13" d="M98 155l131 -158 85 0c0,0 -215,158 -216,158z"/>
  <path class="fil13" d="M98 155l6 -158 62 0c0,0 -67,158 -68,158z"/>
  <path class="fil13" d="M98 155l-44 -155 -56 -3 0 22c0,0 100,136 100,136z"/>
  <g id="_877509896656">
   <path class="fil12" d="M196 121l0 -50 -7 -13 36 0c16,0 27,6 32,18l3 -8 -5 -10 38 0 10 29 0 -16 -7 -13 35 0c1,0 3,0 4,0 5,0 9,1 13,3l-2 -3 74 0 -20 31 20 33c8,3 15,8 15,19 0,6 -3,11 -7,15 1,1 2,3 3,4 2,3 4,7 6,10l4 10 -94 0 0 -7c-5,5 -12,7 -21,7l-44 0 -1 -3 -3 0 -1 3 -103 0 0 -46 -7 -13 29 0z"/>
   <path class="fil14" d="M224 173l0 -41 -2 -3 30 0 0 10 -15 0 0 7 15 0 0 10 -15 0 0 6 16 0 0 11 -29 0zm191 0l-10 -15 0 0 0 15 -13 0 0 -41 -2 -3 19 0c9,0 18,1 18,12 0,6 -4,11 -9,14l0 0 1 0c1,2 9,14 11,18l-15 0zm-10 -19c4,-3 8,-7 8,-11 0,-4 -2,-5 -5,-5l-3 0 0 16 0 0zm-50 19l0 -41 -2 -3 30 0 0 10 -15 0 0 7 15 0 0 10 -15 0 0 6 16 0 0 11 -29 0zm-6 -23c0,14 -9,23 -23,23l-18 0 0 -41 -2 -3 20 0c15,0 23,7 23,21zm-14 0c0,-6 -4,-11 -11,-11l-3 0 0 23 4 0c7,0 10,-5 10,-12zm-63 20l15 0 1 3 15 0 -15 -44 -18 0 1 2 -14 42 14 0 1 -3zm13 -10l-11 0 4 -15c1,-2 1,-5 1,-7l1 0c0,2 0,5 1,7l4 15zm-81 13l-9 -15 -1 0 0 15 -13 0 0 -41 -2 -3 20 0c8,0 18,1 18,12 0,6 -4,11 -9,14l-1 0 1 0c2,2 10,14 11,18l-15 0zm-9 -19c3,-3 8,-7 8,-11 0,-4 -3,-5 -6,-5l-3 0 0 16 1 0z"/>
   <path class="fil14" d="M389 116c-2,-2 -11,-19 -13,-21l0 0 0 21 -16 0 0 -47 -2 -4 18 0 0 25 0 0c2,-4 8,-17 11,-23l0 -2 19 0 -14 24 -1 1 1 0 16 26 -19 0zm-120 -3l18 0 1 3 16 0 -16 -51 -21 0 1 3 -17 48 17 0 1 -3zm15 -11l-12 0 4 -18c1,-3 1,-5 2,-8l0 0c0,3 1,5 1,8l5 18zm-32 -12c0,16 -11,26 -27,26l-22 0 0 -47 -2 -4 24 0c18,0 27,9 27,25zm-17 0c0,-7 -4,-13 -12,-13l-4 0 0 27 4 0c8,0 12,-6 12,-14zm102 26l-11 -17 0 0 0 17 -16 0 0 -47 -1 -4 22 0c10,0 21,2 21,14 0,8 -5,13 -11,16l0 1 1 0c2,3 11,17 12,20l-17 0zm-11 -22c4,-3 10,-8 10,-13 0,-4 -3,-5 -7,-5l-3 0 0 18 0 0z"/>
  </g>
  <path class="fil15" d="M224 173l0 -23 28 0 0 6 -15 0 0 6 16 0 0 11 -29 0zm-43 -23l13 0 0 4 1 0c1,-1 2,-2 4,-4l14 0c-1,2 -3,3 -5,5l-1 0 1 0c2,2 10,14 11,18l-15 0 -9 -15 -1 0 0 15 -13 0 0 -23zm83 0l13 0 -3 10 11 0 -3 -10 13 0 8 23 -15 0 -1 -3 -15 0 -1 3 -14 0 7 -23zm44 0l13 0 0 12 4 0c7,0 10,-5 10,-12l14 0c0,14 -9,23 -23,23l-18 0 0 -23zm47 0l28 0 0 6 -15 0 0 6 16 0 0 11 -29 0 0 -23zm37 0l13 0 0 4 0 0c2,-1 3,-2 4,-4l15 0c-2,2 -4,3 -6,5l0 0 1 0c1,2 9,14 11,18l-15 0 -10 -15 0 0 0 15 -13 0 0 -23z"/>
  <path class="fil15" d="M389 116c-2,-2 -11,-19 -13,-21l0 0 0 21 -16 0 0 -23 33 0 15 23 -19 0zm-186 -23l16 0 0 11 4 0c8,0 11,-5 12,-11l17 0c-1,14 -12,23 -27,23l-22 0 0 -23zm56 0l15 0 -2 9 12 0 -2 -9 15 0 7 23 -16 0 -1 -3 -18 0 -1 3 -17 0 8 -23zm51 0l16 0 0 1 0 0c1,0 1,-1 2,-1l17 0c-1,1 -2,2 -4,2l0 1 1 0c2,3 11,17 12,20l-17 0 -11 -17 0 0 0 17 -16 0 0 -23z"/>
  <g id="_877511359712">
   <path class="fil16" d="M42 179c7,16 27,24 52,24 26,0 45,-10 46,-26 1,-17 -98,-18 -98,2z"/>
   <path class="fil12" d="M31 117c3,-49 30,-69 68,-66 37,3 55,31 53,72 4,13 17,44 19,65 -2,2 -6,3 -11,3 -35,-8 -90,-5 -124,8 -16,-1 -29,-6 -37,-15 11,-27 24,-50 32,-67z"/>
   <path class="fil17" d="M124 64c16,9 25,32 20,57 -6,1 -12,-2 -19,-1 9,-11 12,-42 -1,-56z"/>
   <path class="fil17" d="M15 189c-4,-2 -7,-4 -10,-7 9,-21 19,-42 33,-62 0,-27 10,-46 27,-59 -10,27 -5,46 15,57 -10,-2 -21,-3 -31,7 -7,0 -29,47 -34,64z"/>
   <path class="fil18" d="M70 101c24,-2 41,15 40,37 0,22 -15,40 -41,40 -25,0 -36,-20 -35,-39 1,-19 16,-36 36,-38z"/>
   <path class="fil19" d="M64 102c2,7 11,12 19,16 -10,-2 -21,-3 -32,7 -3,0 -10,7 -17,20 -2,-21 8,-39 30,-43z"/>
   <path class="fil20" d="M71 108c19,-2 33,12 33,30 -1,18 -13,33 -34,33 -21,0 -30,-16 -29,-32 1,-16 13,-30 30,-31z"/>
   <path class="fil18" d="M137 102c22,-2 38,14 38,35 0,21 -15,38 -39,38 -25,1 -34,-18 -33,-37 1,-18 15,-34 34,-36z"/>
   <path class="fil19" d="M145 102c0,6 -1,13 -2,19 -7,1 -11,-2 -18,-1 3,-4 5,-10 7,-17 4,-2 9,-2 13,-1z"/>
   <path class="fil20" d="M137 108c19,-2 32,12 32,29 0,18 -12,32 -33,32 -20,1 -28,-15 -28,-31 1,-15 13,-29 29,-30z"/>
   <path class="fil6" d="M71 112c17,-2 29,11 29,26 0,16 -11,29 -30,29 -18,0 -26,-14 -25,-28 1,-14 12,-26 26,-27z"/>
   <path class="fil6" d="M137 112c17,-2 28,10 28,26 0,15 -11,27 -28,27 -18,1 -25,-13 -25,-27 1,-13 11,-25 25,-26z"/>
   <path class="fil6" d="M98 138c5,-5 13,-5 17,0 4,5 7,-2 2,-7 -4,-6 -16,-5 -21,0 -5,6 -1,10 2,7z"/>
   <path class="fil21" d="M71 120c12,-1 21,8 21,19 0,11 -8,20 -21,20 -13,0 -18,-10 -18,-20 1,-10 8,-18 18,-19z"/>
   <path class="fil22" d="M92 139c0,11 -8,20 -21,20 -13,0 -18,-10 -18,-20 0,0 0,0 0,0l39 0z"/>
   <path class="fil21" d="M138 120c11,-1 20,7 19,18 0,11 -7,19 -20,19 -12,1 -18,-9 -17,-19 1,-9 8,-18 18,-18z"/>
   <path class="fil22" d="M157 139c0,10 -8,18 -20,18 -12,1 -17,-9 -17,-18l37 0z"/>
   <path class="fil17" d="M94 176c1,-4 7,-3 6,0l-1 18c0,3 -6,3 -6,-1l1 -17z"/>
   <path class="fil17" d="M80 183c1,-3 6,-2 6,0l-1 11c0,3 -6,2 -6,0l1 -11z"/>
   <path class="fil17" d="M107 176c1,-5 7,-4 6,0l-1 17c0,4 -7,4 -6,0l1 -17z"/>
   <path class="fil17" d="M119 183c0,-3 6,-2 6,0l-1 11c0,2 -7,2 -6,0l1 -11z"/>
  </g>
  <g id="_877511362688">
   <path class="fil13" d="M78 283c0,0 4,-30 13,-48 9,-18 23,-25 43,-26 20,-1 180,0 209,0 29,0 31,20 28,39 -2,19 -4,35 -4,35 0,0 -228,-1 -278,0 -6,0 -11,0 -11,0z"/>
   <path class="fil17" d="M89 283c0,0 3,-27 11,-44 8,-16 21,-24 40,-24 18,-1 174,0 201,0 26,0 29,19 26,36 -3,17 -4,32 -4,32 0,0 -218,-1 -264,0 -6,0 -10,0 -10,0z"/>
   <polygon class="fil17" points="29,259 133,273 115,276 "/>
   <path class="fil6" d="M96 283c0,0 3,-24 11,-39 9,-15 18,-21 37,-22 19,0 166,0 193,0 27,0 29,15 26,31 -3,16 -5,30 -5,30 0,0 -210,-1 -257,0 -5,0 -5,0 -5,0z"/>
   <path class="fil12" d="M101 283c0,0 4,-24 12,-39 7,-14 22,-17 39,-18 18,0 163,0 189,0 25,0 26,14 23,29 -3,15 -5,28 -5,28 0,0 -257,-1 -258,0z"/>
  </g>
  <polygon class="fil11" points="867,0 1307,0 1307,280 867,280 "/>
  <g style="clip-path:url(#id2)">
   <g id="_877510299072">
    <rect class="fil23" x="865" y="-3" width="443" height="286"/>
    <polygon class="fil1" points="865,181 995,87 1308,181 1308,282 865,282 "/>
    <path class="fil24" d="M981 134l327 -77 0 35c0,0 -326,42 -327,42z"/>
    <path class="fil24" d="M981 134l-116 -65 0 35c0,0 116,30 116,30z"/>
    <path class="fil24" d="M981 134l327 106 0 35c0,0 -326,-141 -327,-141z"/>
    <path class="fil24" d="M981 134l228 149 -63 0c7,0 -164,-149 -165,-149z"/>
    <path class="fil24" d="M981 134l327 11 0 36c0,0 -326,-47 -327,-47z"/>
    <path class="fil24" d="M981 134l-116 28 0 36c0,0 116,-64 116,-64z"/>
    <path class="fil24" d="M981 134l283 -137 44 0 0 20c0,0 -326,117 -327,117z"/>
    <path class="fil24" d="M981 134l112 -137 74 0c0,0 -185,137 -186,137z"/>
    <path class="fil24" d="M981 134l-31 -137 60 0c0,0 -28,137 -29,137z"/>
    <path class="fil24" d="M981 134l-98 -137 -18 0 0 20c0,0 116,117 116,117z"/>
    <path class="fil1" d="M930 191c8,17 31,27 59,27 29,0 52,-11 53,-30 1,-19 -112,-20 -112,3z"/>
    <path class="fil1" d="M917 120c4,-56 35,-78 77,-75 43,3 63,35 61,82 4,14 20,54 22,77 -3,3 -7,4 -12,4 -40,-9 -103,-10 -141,5 -19,-1 -34,-6 -42,-17 12,-31 26,-57 35,-76z"/>
    <path class="fil3" d="M1024 60c17,11 27,36 22,65 -7,0 -14,-2 -22,-2 11,-12 14,-48 0,-63z"/>
    <path class="fil3" d="M899 201c-4,-1 -7,-4 -11,-7 11,-24 22,-47 38,-70 -1,-31 11,-53 31,-68 -12,31 -7,53 16,65 -12,-2 -24,-3 -35,8 -8,0 -33,54 -39,72z"/>
    <path class="fil18" d="M962 102c27,-2 46,17 46,42 0,25 -18,45 -47,45 -29,1 -41,-22 -39,-44 1,-22 18,-41 40,-43z"/>
    <path class="fil19" d="M955 103c3,8 13,14 22,18 -12,-2 -24,-3 -36,8 -4,0 -12,9 -19,22 -3,-23 8,-44 33,-48z"/>
    <path class="fil5" d="M963 110c21,-2 37,14 37,34 0,21 -14,37 -38,37 -24,1 -34,-18 -33,-36 1,-18 15,-34 34,-35z"/>
    <path class="fil18" d="M1037 103c26,-2 44,16 44,40 0,23 -17,42 -44,43 -28,0 -39,-21 -38,-42 1,-21 17,-39 38,-41z"/>
    <path class="fil19" d="M1047 103c0,7 -1,15 -2,22 -8,0 -13,-2 -21,-2 4,-4 6,-11 8,-19 5,-2 10,-2 15,-1z"/>
    <path class="fil5" d="M1038 110c21,-2 36,13 36,33 0,20 -14,36 -37,36 -23,1 -32,-17 -31,-35 1,-18 14,-33 32,-34z"/>
    <path class="fil6" d="M963 114c19,-2 33,13 33,30 -1,18 -13,32 -34,33 -21,0 -29,-16 -28,-32 1,-16 13,-29 29,-31z"/>
    <path class="fil6" d="M1038 114c19,-2 32,12 32,29 0,18 -12,32 -33,32 -20,0 -28,-16 -27,-31 1,-15 12,-29 28,-30z"/>
    <path class="fil6" d="M993 144c6,-5 15,-6 20,0 5,5 7,-3 2,-9 -5,-5 -18,-5 -23,1 -6,6 -2,11 1,8z"/>
    <path class="fil7" d="M963 123c14,-1 24,9 24,22 -1,12 -9,22 -24,23 -15,0 -21,-12 -20,-23 0,-11 9,-21 20,-22z"/>
    <path class="fil7" d="M1039 123c13,-1 22,8 22,21 0,12 -8,22 -23,22 -14,0 -20,-11 -19,-22 0,-11 9,-20 20,-21z"/>
    <path class="fil3" d="M990 187c1,-5 7,-4 7,0l-2 20c-1,4 -8,4 -7,-1l2 -19z"/>
    <path class="fil3" d="M973 195c1,-3 8,-2 7,0l-1 13c0,2 -7,2 -7,-1l1 -12z"/>
    <path class="fil3" d="M1004 187c1,-5 7,-4 7,0l-2 20c0,4 -7,3 -7,-1l2 -19z"/>
    <path class="fil3" d="M1017 195c1,-4 7,-3 7,0l-1 12c0,3 -7,3 -7,0l1 -12z"/>
    <path class="fil1" d="M1089 123l0 -50 -6 -13 34 0c16,0 27,6 31,19l3 -9 -5 -10 37 0 10 30 0 -17 -6 -13 33 0c1,0 3,0 4,0 5,1 9,2 13,3l-2 -3 70 0 -19 30 20 34 -20 0c7,2 13,6 13,15 0,5 -2,10 -5,13 0,1 1,1 1,2 2,2 4,6 5,8l4 10 -77 0 0 -5c-4,3 -9,5 -16,5l-35 0 -1 -3 -2 0 0 3 -84 0 0 -38 -6 -11 6 0zm37 0l7 0 1 -3c-3,1 -5,2 -8,3zm38 0l8 0 0 -3 -7 0 -1 3zm55 1c1,0 3,0 4,1l-1 -1 -3 0zm51 -1l1 0 -1 -2 0 2zm-110 8l0 2 0 -1 0 -1zm81 -30l0 -5c-1,1 -1,1 -2,2 1,1 1,2 2,3zm-123 -14l0 10c2,-1 2,-3 2,-6 0,-2 0,-3 -2,-4z"/>
    <g>
     <path class="fil25" d="M1130 165l0 -32 -1 -3 24 0 0 8 -12 0 0 5 11 0 0 8 -11 0 0 6 12 0 0 8 -23 0zm152 0l-8 -12 0 0 0 12 -11 0 0 -32 -1 -3 15 0c7,0 15,1 15,9 0,6 -3,9 -7,11l-1 1 1 0c1,2 7,11 9,14l-12 0zm-8 -15c3,-2 7,-6 7,-9 0,-3 -2,-4 -5,-4l-2 0 0 13 0 0zm-40 15l0 -32 -1 -3 24 0 0 8 -12 0 0 5 11 0 0 8 -11 0 0 6 13 0 0 8 -24 0zm-4 -18c0,11 -8,18 -19,18l-14 0 0 -32 -2 -3 16 0c12,0 19,5 19,17zm-12 0c0,-5 -3,-9 -8,-9l-3 0 0 19 3 0c6,0 8,-5 8,-10zm-50 15l12 0 1 3 11 0 -11 -35 -14 0 0 1 -11 34 11 0 1 -3zm10 -7l-8 0 3 -12c1,-2 1,-4 1,-6l0 0c1,2 1,4 1,6l3 12zm-64 10l-7 -12 -1 0 0 12 -10 0 0 -32 -1 -3 15 0c7,0 14,1 14,9 0,6 -3,9 -7,11l0 1 0 0c2,2 8,11 9,14l-12 0zm-7 -15c2,-2 6,-6 6,-9 0,-3 -2,-4 -4,-4l-3 0 0 13 1 0z"/>
     <path class="fil25" d="M1275 117c-1,-3 -10,-19 -12,-21l0 0 0 21 -15 0 0 -46 -2 -4 17 0 0 24 0 0c2,-4 8,-17 11,-22l0 -2 18 0 -14 23 -1 1 1 0 16 26 -19 0zm-116 -4l18 0 1 4 16 0 -16 -50 -20 0 1 2 -17 48 17 0 0 -4zm15 -10l-12 0 5 -17c0,-3 1,-6 1,-8l0 0c1,2 1,5 2,7l4 18zm-31 -12c0,16 -10,26 -26,26l-21 0 0 -46 -1 -4 22 0c17,0 26,8 26,24zm-16 0c0,-7 -4,-12 -12,-12l-4 0 0 26 5 0c8,0 11,-6 11,-14zm99 26l-11 -17 0 0 0 17 -15 0 0 -46 -2 -4 22 0c9,0 20,2 20,14 0,7 -5,12 -10,15l-1 1 1 0c2,2 11,16 12,20l-16 0zm-11 -22c4,-2 9,-7 9,-12 0,-4 -3,-5 -6,-5l-3 0 0 17 0 0z"/>
    </g>
    <path class="fil24" d="M974 283c0,0 3,-27 11,-44 8,-17 21,-24 40,-24 19,-1 167,0 193,0 27,0 30,18 27,36 -3,17 -5,32 -5,32 0,0 -210,-1 -256,0 -6,0 -10,0 -10,0z"/>
    <path class="fil26" d="M983 283c0,0 4,-25 11,-41 7,-15 19,-21 36,-22 18,-1 162,0 186,0 25,0 27,17 25,33 -3,16 -4,30 -4,30 0,0 -202,-1 -245,0 -5,0 -9,0 -9,0z"/>
    <polygon class="fil26" points="927,260 1024,273 1008,277 "/>
    <path class="fil27" d="M990 283c0,0 3,-22 11,-36 7,-14 16,-20 33,-20 18,-1 154,0 179,0 25,0 27,13 24,28 -3,15 -4,28 -4,28 0,0 -195,-1 -238,0 -5,0 -5,0 -5,0z"/>
    <path class="fil1" d="M995 283c0,0 3,-22 10,-36 8,-13 21,-16 37,-17 16,0 151,0 175,0 23,0 24,13 21,27 -3,14 -4,26 -4,26 0,0 -238,-1 -239,0z"/>
   </g>
  </g>
  <polygon class="fil0" points="867,0 1307,0 1307,280 867,280 "/>
 </g>
</svg>
